<svg xmlns="http://www.w3.org/2000/svg" xmlns:xlink="http://www.w3.org/1999/xlink" width="596.789" height="450.968" viewBox="0 0 596.789 450.968"><defs><style>.a,.g{fill:#f0cb86;}.a,.f,.n{opacity:0.1;}.b{fill:url(#a);}.c{fill:#d38884;}.d{fill:#444053;}.e{fill:#b07473;}.h{fill:#67647e;}.i{fill:#585268;}.j{fill:#e1e7ef;}.k{fill:url(#b);}.l{fill:#a27772;}.m{fill:#cc818c;}.o{fill:#f6f8fb;}.p{fill:url(#c);}.q{fill:#65617d;}.r{fill:#fbbebe;}.s,.z{opacity:0.05;}.t{fill:#7c5c5c;}.u{fill:url(#d);}.v{fill:#fdc2cc;}.w{fill:#d39999;}.x{fill:#7e5659;}.y{fill:#865a61;}.aa{fill:url(#e);}.ab{fill:#fff;opacity:0.5;}.ac{fill:#3f2b3b;}.ad{fill:none;stroke:#3f2b3b;stroke-miterlimit:10;}.ae{fill:#a8a8a8;}.af{opacity:0.2;}</style><linearGradient id="a" x1="0.5" y1="1" x2="0.5" gradientUnits="objectBoundingBox"><stop offset="0" stop-color="gray" stop-opacity="0.251"/><stop offset="0.54" stop-color="gray" stop-opacity="0.122"/><stop offset="1" stop-color="gray" stop-opacity="0.102"/></linearGradient><linearGradient id="b" x1="0.5" x2="0.5" y2="0" xlink:href="#a"/><linearGradient id="c" x1="0.5" x2="0.5" y2="0" xlink:href="#a"/><linearGradient id="d" x1="1.096" x2="1.096" y2="0" xlink:href="#a"/><linearGradient id="e" x1="0.5" x2="0.5" y2="0" xlink:href="#a"/></defs><g transform="translate(0.013 -0.004)"><path class="a" d="M43.44,426.65c9.442,36.8,29.433,68.607,61.027,84.024,65.685,32.045,213.732,15.517,324.241-3.452,57.177-9.815,107.4-36.877,143.9-75.012Z" transform="translate(-37.005 -213.409)"/><path class="a" d="M636.794,60.176H576.16a4.8,4.8,0,1,1,0-9.557h10.491a5.044,5.044,0,0,1-5.246-4.779,5.036,5.036,0,0,1,5.246-4.773h-7.485a5.044,5.044,0,0,1-5.246-4.779,5.04,5.04,0,0,1,5.246-4.779h31.647a89.661,89.661,0,0,0-24.686-6.2c-86.3-10.108-117.108-3.425-127.993,3.452a127,127,0,0,1-44.352,17.725C360.54,56.5,260.967,68.548,170.717,42.625,125.862,29.747,92.526,51.542,72.54,87.9H647.322c-.75-10.575-3-20.342-7.118-28.888A5.5,5.5,0,0,1,636.794,60.176Z" transform="translate(-50.84 -20.14)"/><path class="a" d="M32.45,280.23a222.382,222.382,0,0,0,2.355,64.2l532.366,17.751a227.215,227.215,0,0,0,36.987-51.407Zm210.543,45.8H232.5a4.8,4.8,0,1,1,0,9.552H171.893a4.8,4.8,0,1,1,0-9.552h10.491a4.8,4.8,0,1,1,0-9.557h-7.5a4.8,4.8,0,1,1,0-9.552h60.634a4.8,4.8,0,1,1,0,9.552h7.47a4.8,4.8,0,1,1,0,9.557Z" transform="translate(-31.16 -143.795)"/><path class="a" d="M628.92,149.94,47.707,162.828A195.214,195.214,0,0,0,33.78,217.551H618.733a209.3,209.3,0,0,0,8.445-34.878A151.085,151.085,0,0,0,628.92,149.94ZM151.79,192.172H141.3a4.8,4.8,0,1,1,0,9.557H80.67a4.8,4.8,0,1,1,0-9.557H91.162a4.8,4.8,0,1,1,0-9.552h-7.5a4.8,4.8,0,1,1,0-9.558H144.3a4.8,4.8,0,1,1,0,9.558h7.491a4.8,4.8,0,1,1,0,9.552Z" transform="translate(-32.412 -81.85)"/><ellipse class="a" cx="39.463" cy="8.86" rx="39.463" ry="8.86" transform="translate(309.018 384.531)"/><ellipse class="a" cx="71.193" cy="5.844" rx="71.193" ry="5.844" transform="translate(368.985 415.685)"/><ellipse class="a" cx="71.193" cy="8.86" rx="71.193" ry="8.86" transform="translate(83.137 403.809)"/><ellipse class="a" cx="53.568" cy="8.86" rx="53.568" ry="8.86" transform="translate(209.309 359.457)"/><ellipse class="a" cx="42.883" cy="8.86" rx="42.883" ry="8.86" transform="translate(234.95 433.252)"/><path class="b" d="M514.927,234.342c-1.133-7.627-8.063-25.425-8.063-25.425h0q-.181-.787-.409-1.574c-4.915-16.891-11.719-18.36-11.719-18.36l-24.371-5.246a1.888,1.888,0,0,1,.525.488,3.38,3.38,0,0,0-.383.058,9.547,9.547,0,0,1-2.135-4.616c-.047-.252-.089-.525-.121-.782a17.143,17.143,0,0,0-1.4-25.772c-.257-.2-.525-.393-.782-.577,1.149-1.222,1.186-2.922.325-4.621-1.92-3.987-6.1-6.51-10.386-7.743a17.608,17.608,0,0,0-10.082-.215,36.423,36.423,0,0,0-5.277,2.45c-3.237,1.616-6.819,2.9-9.238,5.555a2.711,2.711,0,0,0-.923,2.229,6.017,6.017,0,0,0,.918,1.621,4.891,4.891,0,0,1,.047,4.06,39.348,39.348,0,0,0-1.505,3.9,4.08,4.08,0,0,0,.813,3.918,17.268,17.268,0,0,0,1.521,1.049,7.978,7.978,0,0,1,1.453,1.631q1.448,1.941,2.885,3.9a40.149,40.149,0,0,1,3.614,5.492,26.766,26.766,0,0,0,2.235,4.2,6.222,6.222,0,0,0,.96,1.007l-.283-.11a4.37,4.37,0,0,0,3.205,1.306h.147a.881.881,0,0,0,.588-.241v.525c.058,1.873.047,3.866-.084,5.739l-.226-.115a1.967,1.967,0,0,0-2.1.22l-22.435,18s-4.878,6.672-4.2,18.192l-3.934,17.274s-4.915,14.656-1.133,25.121,5.975,16.45,5.975,16.45,1.511,11.892,3.782,12.862,3.252,1.495,3.252,1.495l.451,2.843h0s.152.278.42.745c1.652,2.875,7.774,13.02,11.331,11.934a45.476,45.476,0,0,1,.577,8.335l3.52,23.631s2.455,6.426,2.3,9.794,2.864,8.167,2.864,8.167a15.606,15.606,0,0,0-1.511,10.99c1.437,6.295,3.252,35.292,3.252,35.292l2.623,7.029-.073,8.241a7.868,7.868,0,0,1-1.626,3.672c-1.7,1.846-1.574,3.981-5.671,6.5s-6.693,3.478-6.693,6.819a8.77,8.77,0,0,1-.126,1.39c-.378,2.455-1.112,3.787,6.421,4.5a19.86,19.86,0,0,0,14.751-4.931s1.3-2.361,7.428-3.315c0,0,2.1-.11,2.208-1.962.042-.64.031-1.862,0-3.21-.1-2.565-.346-5.56-.671-5.707-.409-.184-1.123-2.764-1.369-3.7h1.7s1.574-11.892,0-19.592A31.785,31.785,0,0,1,467.952,392l-.3-20.337s-2.1-2.245-.451-6.211,0-23.553,0-23.553.608-7.029,2.345-8.676.084-10.3,0-10.748l3.095,10.381s1.359,20.636,4.238,24.371l.829,9.348s5.9,8.6,4.763,13.235,1.212,21.386,1.212,21.386v17.127s-2.649,6.877,1.049,9.348l1.574-.063c-.525.488-.928,1.222-1.542,1.857-.708.729-1.112,3.5-1.338,5.891-.189,2.02-.252,3.756-.252,3.756a6.185,6.185,0,0,0,4.537,2.691c2.964.173,12.731,7.6,12.731,7.6s9.647,0,12.144-.525l.147-.037a3.278,3.278,0,0,0,1.883-1.537,3.934,3.934,0,0,0,.451-2.827c-.31-1.474-1.479-3.09-4.071-4.464-6.447-3.4-7.407-6.583-7.407-6.583l-4.233-6.352h.6a27.174,27.174,0,0,1,4.233-14.284l-.3-33.273s1.888-11.441-1.359-17.651c0,0-.268-6.578,1.9-8.6s-2.89-22.43-2.89-22.43-1.049-10.958-2.282-20.956h0c5.1,4.842,10.4-12.589,11.289-15.69h.131l-.058-.226c.037-.147.058-.22.058-.22h0s-1.133-4.029-.3-3.21,2.875-2.245,2.875-2.245-.3-16.676,3.252-25.079S514.927,234.342,514.927,234.342Zm-15.212,10.612.026-.047c.525,10.182-.1,31.909-.1,31.909s-.7,2.785-1.453,6.064l-.525-20.641h0l-.525-19.445Zm-65.1-7.019s2.57,32.15,0,36.787a24.29,24.29,0,0,0-1.852,6.352c-.85-2.229-2.649-7.464-2-10.239.834-3.588-1.663-13.014-1.663-13.235s-.226-5.246,1.574-9.085.619-5.5.619-5.5S432.8,236.718,434.611,237.935Z" transform="translate(-212.02 -76.798)"/><path class="c" d="M455.136,450.878c-2.24,9.846-11.147-5.041-13.177-8.613-.262-.467-.409-.74-.409-.74l.965-4.527,5.1-2.1a14.259,14.259,0,0,1,2.287,1.49A13.789,13.789,0,0,1,455.136,450.878Z" transform="translate(-226.282 -217.331)"/><path class="c" d="M585.876,432.363a.688.688,0,0,1-.058.22,1.115,1.115,0,0,1-.068.236c-.876,3.074-6.069,20.379-11.084,15.574-5.487-5.246-2.822-17.373-2.822-17.373h.037l11.54-1.18,2.287,2.35h0Z" transform="translate(-287.921 -214.926)"/><path class="d" d="M522.47,518.733l.294,33.047a27.1,27.1,0,0,0-4.155,14.163l-14.919.588c-3.64-2.45-1.049-9.274-1.049-9.274V540.24s-2.3-16.623-1.191-21.229-4.674-13.114-4.674-13.114l-.818-9.279c-2.822-3.709-4.16-24.193-4.16-24.193l-3.027-10.344c.084.446,1.658,9.08,0,10.67s-2.3,8.608-2.3,8.608,1.631,19.451,0,23.38.441,6.164.441,6.164l.3,20.19a31.573,31.573,0,0,0,.147,13.062c1.558,7.643,0,19.451,0,19.451h-16l.073-8.241-2.591-6.977s-1.784-28.8-3.195-35.035a15.653,15.653,0,0,1,1.479-10.911s-2.964-4.747-2.817-8.089-2.287-9.715-2.287-9.715l-3.452-23.453a45.565,45.565,0,0,0-1.71-13.361c-2-6.683-4.973-15.443-4.973-15.443l3.352.3,16.912,1.505s41.12-2.764,42.962-.467a7.716,7.716,0,0,1,.776,2.4c1.846,8.293,4.286,34.275,4.286,34.275s4.973,20.264,2.838,22.268-1.873,8.529-1.873,8.529C524.332,507.35,522.47,518.733,522.47,518.733Z" transform="translate(-231.193 -216.133)"/><path class="e" d="M492.587,692.181c-.115,1.841-2.166,1.951-2.166,1.951-6.011.944-7.291,3.284-7.291,3.284a19.308,19.308,0,0,1-14.473,4.9c-7.4-.713-6.678-2.03-6.295-4.469a9.246,9.246,0,0,0,.121-1.374c0-3.341,2.56-4.291,6.568-6.819s3.9-4.621,5.566-6.457,1.841-5.4,1.841-5.4c1.888-3.289,6.678.525,6.678.525.226,1.164,7.344,1,7.344,1s.944,3.787,1.432,4.008c.32.147.561,3.116.656,5.665C492.619,690.335,492.629,691.547,492.587,692.181Z" transform="translate(-236.073 -332.179)"/><path class="f" d="M492.587,703.554c-.115,1.841-2.166,1.951-2.166,1.951-6.011.944-7.291,3.284-7.291,3.284a19.308,19.308,0,0,1-14.473,4.9c-7.4-.713-6.678-2.03-6.295-4.469,3.3.818,9.62,1.962,13.308-.042,5.125-2.78,8.8-4.721,8.8-4.721l8.1-4.076C492.619,701.707,492.629,702.919,492.587,703.554Z" transform="translate(-236.073 -343.551)"/><path class="e" d="M578.608,704.016a3.2,3.2,0,0,1-1.846,1.526l-.142.037c-2.45.525-11.918.525-11.918.525s-9.573-7.4-12.469-7.569a6.089,6.089,0,0,1-4.454-2.675s.058-1.721.241-3.724c.226-2.371.619-5.125,1.317-5.849,1.28-1.338,1.574-3.147,4.453-2,0,0,4.113-7.249,8.959-1.647l5.015,7.606s.944,3.147,7.3,6.562c2.539,1.364,3.672,2.969,3.992,4.433A3.908,3.908,0,0,1,578.608,704.016Z" transform="translate(-276.788 -334.104)"/><path class="f" d="M578.608,714.551c-.567.477-1.191.991-1.846,1.526l-.142.037c-2.45.525-11.918.525-11.918.525s-9.573-7.4-12.469-7.569a6.089,6.089,0,0,1-4.454-2.675s.058-1.721.241-3.724c2.948.881,7.412,2.439,8.608,4.118,1.836,2.555,7.412,6.122,7.412,6.122s10.4-1,15.013-1.138A3.909,3.909,0,0,1,578.608,714.551Z" transform="translate(-276.788 -344.64)"/><path class="c" d="M504.29,215.75,490.6,230.223S474.007,229,476.9,224.1c1.474-2.5,1.7-7.722,1.574-12.264-.121-4.38-.572-8.11-.572-8.11s23.27-11.582,21.507-.782a17.776,17.776,0,0,0-.063,6.164C500.34,214.565,504.29,215.75,504.29,215.75Z" transform="translate(-242.928 -104.861)"/><path class="f" d="M500.606,202.946a17.776,17.776,0,0,0-.063,6.164,17.08,17.08,0,0,1-12.18,5.083c-3.147,0-6.552-2.586-9.1-4.081-.121-4.385-.147-6.384-.147-6.384S502.389,192.145,500.606,202.946Z" transform="translate(-244.144 -104.861)"/><path class="c" d="M498.335,178.633a17.148,17.148,0,1,1-6.452-13.4A17.148,17.148,0,0,1,498.335,178.633Z" transform="translate(-236.973 -87.342)"/><path class="f" d="M518.235,436.376c-4.27,10.161-31.736,10.37-31.736,10.37V435.668l-1.663-.11c.719,3.174-1.007,10.911-1.007,10.911-21.706,3.063-27-9.306-27-9.306l.755-4.233,16.912,1.505s41.12-2.764,42.962-.467A7.719,7.719,0,0,1,518.235,436.376Z" transform="translate(-233.546 -216.395)"/><path class="g" d="M486.5,347.778V336.7l-1.663-.1c.719,3.147-1.007,10.911-1.007,10.911-16.335,2.3-23.374-4.128-25.856-7.454a10.151,10.151,0,0,1-1.144-1.846l6.63-37.3,1.574-54.89,2.376-9.631.551-4.621v-.052h.058l1.689.724,10.108,4.37,11.483-8.671.168-.121.572-.435.949.761,2.36,1.894,7.569,48.884s13.114,37.637,15.569,52.828c.1.608.178,1.175.241,1.7C520.349,347.521,486.5,347.778,486.5,347.778Z" transform="translate(-233.546 -118.763)"/><circle class="h" cx="0.976" cy="0.976" r="0.976" transform="translate(246.522 118.149)"/><circle class="h" cx="0.976" cy="0.976" r="0.976" transform="translate(246.973 127.056)"/><circle class="h" cx="0.976" cy="0.976" r="0.976" transform="translate(247.948 141.476)"/><circle class="h" cx="0.976" cy="0.976" r="0.976" transform="translate(249.559 157.008)"/><circle class="h" cx="0.976" cy="0.976" r="0.976" transform="translate(250.534 171.591)"/><circle class="h" cx="0.976" cy="0.976" r="0.976" transform="translate(251.51 187.123)"/><circle class="h" cx="0.976" cy="0.976" r="0.976" transform="translate(251.122 202.487)"/><path class="f" d="M468.607,309.939s-1.091,14.284-3.095,18.438-2.9,15.81-2.9,15.81l-4.653-.525a10.15,10.15,0,0,1-1.144-1.846l6.63-37.3,1.574-54.89,2.382-9.636.551-4.621.063-.026a1.878,1.878,0,0,1,1.658.026l.22.115q-.1.283-.189.582c-1.815,5.681-2.492,16.151-2.492,16.151s2.623,19.152,2.9,28.059S468.607,309.939,468.607,309.939Z" transform="translate(-233.542 -122.37)"/><path class="f" d="M449.906,436.405a2.68,2.68,0,0,1-.178.346c-1.8,3.048-6.379,4.983-7.769,5.513-.262-.467-.409-.74-.409-.74l.965-4.527,5.1-2.1A14.256,14.256,0,0,1,449.906,436.405Z" transform="translate(-226.282 -217.331)"/><path class="h" d="M424.3,298.81l-4.233,2.523-3.855,17.148s-4.826,14.546-1.117,24.938,5.865,16.34,5.865,16.34,1.484,11.8,3.714,12.768,3.189,1.484,3.189,1.484l.446,2.822s6.043-2.051,8.178-5.665-1.574-12.589-1.574-12.589-3.189-7.648-2.371-11.21-1.637-12.915-1.637-13.114-.22-5.2,1.574-9.022.6-5.455.6-5.455l-1.117-10.911Z" transform="translate(-213.035 -152.629)"/><path class="f" d="M549.58,335.872s-11.21,4.228-14.772.525-3.195-21.082-3.195-21.082-3.41-32.066-5.566-37.333S525,234.705,525,234.705s-1.448-4.915-2.712-6.2a1.373,1.373,0,0,0-.268-.215l.435.094,1.521.325,2.36,1.894,7.569,48.884s13.114,37.637,15.569,52.828Z" transform="translate(-264.54 -119.101)"/><path class="f" d="M586.452,432.8h-.126c-1.411.184-13.864,1.689-13.917-.9a7.581,7.581,0,0,1,.047-.9L584,429.82l2.287,2.35h0c.042.152.073.283.1.388Z" transform="translate(-288.498 -214.916)"/><path class="h" d="M574.5,266.07l8.183,4.27S589.5,288,590.6,295.566c0,0,5.052,20.28,1.574,28.62s-3.189,24.9-3.189,24.9-2,3.042-2.822,2.229.3,3.189.3,3.189-13.99,1.857-14.048-.892,3.21-15.884,3.21-15.884.892-31.248-.372-36.147S574.5,266.07,574.5,266.07Z" transform="translate(-288.497 -137.063)"/><path class="f" d="M523.8,329.52s-4.606,11.278-6.09,12.023.3,3.709.3,3.709S526.392,333.528,523.8,329.52Z" transform="translate(-262.208 -167.23)"/><path class="f" d="M518.1,254.095c.052-.215-5.492,5.44-6.977,6.295S516.54,260.337,518.1,254.095Z" transform="translate(-259.26 -131.367)"/><path class="f" d="M488.432,327.82s-8.461,5.471-7.344,7.638S488.432,327.82,488.432,327.82Z" transform="translate(-245.031 -166.421)"/><path class="f" d="M524.47,480.07a45.293,45.293,0,0,0,18.407,5.77Z" transform="translate(-265.705 -238.807)"/><path class="f" d="M491.5,501.3s6.678,8.393,9.725,8.608S491.5,501.3,491.5,501.3Z" transform="translate(-250.03 -248.901)"/><path class="f" d="M502.027,564c-.3.147-3.787,7.569-7.344,7.795S502.027,564,502.027,564Z" transform="translate(-251.204 -278.711)"/><path class="f" d="M568.33,594.8s6.62-1.484,8.094,3.263C576.424,598.048,575.978,596.563,568.33,594.8Z" transform="translate(-286.558 -293.25)"/><path class="f" d="M559.84,646.235s8.021-1.637,9.725.593S559.84,646.235,559.84,646.235Z" transform="translate(-282.521 -317.533)"/><path class="f" d="M509.451,654c0,.073-8.162,1.637-7.868,2.675s8.708.892,9.007-.745a1.574,1.574,0,0,0-1.138-1.93Z" transform="translate(-254.82 -321.5)"/><path class="f" d="M554.75,666.992s13.413-1.637,12.589,1.185S554.75,666.992,554.75,666.992Z" transform="translate(-280.101 -327.453)"/><path class="f" d="M420.89,352.44c.073.22,8.834,1.411,10.019,4.233,0,0-8.608-4.013-9.967-4.013" transform="translate(-216.459 -178.127)"/><path class="f" d="M438.232,396.16s-7.276,2.3-6.756,5.77S430.736,400.325,438.232,396.16Z" transform="translate(-221.48 -198.913)"/><path class="f" d="M437.92,427.075s2.649-3.635,5.172-2.969S437.92,427.075,437.92,427.075Z" transform="translate(-224.556 -212.161)"/><path class="f" d="M491.906,165.233a4.126,4.126,0,0,1-.85.635c-2.1,1.222-2.675,3.105-3.672,5.277-.928,1.988-1.951,4.092-3.824,5.219-2.418,1.458-5.6.923-8.115,2.193a6.3,6.3,0,0,0-3.357,6.206,17.9,17.9,0,0,0,.713,2.843,20.272,20.272,0,0,1,.766,6.174,1.048,1.048,0,0,1,0,.184,17.143,17.143,0,1,1,18.36-28.73Z" transform="translate(-236.996 -87.339)"/><path class="i" d="M483.7,151.055c-1.883-3.955-5.98-6.463-10.192-7.685a17.118,17.118,0,0,0-9.9-.21,36.31,36.31,0,0,0-5.177,2.429c-3.179,1.605-6.672,2.875-9.064,5.513a2.763,2.763,0,0,0-.908,2.214,6.181,6.181,0,0,0,.9,1.605,4.871,4.871,0,0,1,.047,4.034,37,37,0,0,0-1.479,3.877,4.078,4.078,0,0,0,.8,3.887,14.534,14.534,0,0,0,1.5,1.049,7.9,7.9,0,0,1,1.422,1.616l2.833,3.871a39.267,39.267,0,0,1,3.546,5.45,25.97,25.97,0,0,0,2.193,4.16,4.747,4.747,0,0,0,3.976,2.124.771.771,0,0,0,.629-.3.829.829,0,0,0,.079-.393,20.133,20.133,0,0,0-.75-6.153,17.757,17.757,0,0,1-.713-2.843,6.321,6.321,0,0,1,3.357-6.206c2.518-1.269,5.7-.734,8.115-2.187,1.878-1.133,2.9-3.237,3.824-5.246,1.012-2.172,1.574-4.055,3.672-5.277S484.744,153.138,483.7,151.055Z" transform="translate(-229.237 -78.323)"/><path class="f" d="M501.63,693.06s2.623,3.341,1.941,5.246S501.63,693.06,501.63,693.06Z" transform="translate(-254.846 -340.071)"/><path class="f" d="M569.28,704.848s.582-4.48,2.917-4.522,2.45-.241,4.233.446,3.457,1.752,2.922,1.909-3.069-2.56-5.671-1.17A18.735,18.735,0,0,0,569.28,704.848Z" transform="translate(-287.01 -343.497)"/><path class="f" d="M480.51,246.194l7.344-5.146s-10.743-6.347-12.023-5.455-2.161,8.918-2.161,8.918Z" transform="translate(-241.553 -122.532)"/><path class="j" d="M480.45,245.473l7.344-5.246s-10.743-6.347-12.023-5.455-2.161,9.358-2.161,9.358Z" transform="translate(-241.524 -122.142)"/><path class="g" d="M480.45,245.473l7.344-5.246s-10.743-6.347-12.023-5.455-2.161,9.358-2.161,9.358Z" transform="translate(-241.524 -122.142)"/><path class="h" d="M454.219,234.642l-.22-.11a1.9,1.9,0,0,0-2.062.215l-22.032,17.872s-4.789,6.625-4.123,18.055l12.993,18.407s1.484-6.232,3.263-5.046c0,0,2.523,31.92,0,36.52s-3.635,21.822-3.635,21.822l8.535.965s.892-11.656,2.9-15.81,3.095-18.438,3.095-18.438,1.8-20.752,1.505-29.659-2.9-28.059-2.9-28.059S452.267,240.15,454.219,234.642Z" transform="translate(-218.755 -121.97)"/><path class="f" d="M513.594,239.516l-9.154-3.389s11.656-12.768,13.114-5.686Z" transform="translate(-256.182 -119.106)"/><path class="j" d="M513.594,238.666l-9.154-3.389s11.656-12.768,13.114-5.686Z" transform="translate(-256.182 -118.702)"/><path class="g" d="M513.594,238.666l-9.154-3.389s11.656-12.768,13.114-5.686Z" transform="translate(-256.182 -118.702)"/><path class="f" d="M521.32,228.114a.525.525,0,0,1,.378.084Z" transform="translate(-264.208 -119.014)"/><path class="h" d="M523,226.422l24.287,5.246s6.683,1.485,11.509,18.26-6.609,37.328-6.609,37.328l-2.523-2.145,1.264,48.989s-11.21,4.228-14.772.525-3.189-21.1-3.189-21.1-3.415-32.061-5.571-37.333-1.049-43.271-1.049-43.271S524.364,226.128,523,226.422Z" transform="translate(-265.006 -118.208)"/><path class="f" d="M565.071,285.741c-.341.315-.74,15.139.745,26.422a144,144,0,0,0,4.2,20.337l-2.2-45.2S566.11,284.775,565.071,285.741Z" transform="translate(-284.857 -146.311)"/><path class="f" d="M559.7,261.6c.593.372,3.195,6.531,2,9.054S559.7,261.6,559.7,261.6Z" transform="translate(-282.455 -134.938)"/><path class="f" d="M495.456,153.722a13.408,13.408,0,0,0-5.34-5.592,12.7,12.7,0,0,1,4,4.721c1.049,2.1.74,4.2-1.3,5.345s-2.675,3.105-3.672,5.277c-.928,1.988-1.951,4.092-3.829,5.246-2.413,1.458-5.6.918-8.115,2.187a6.337,6.337,0,0,0-3.357,6.211,17.836,17.836,0,0,0,.719,2.838,20.291,20.291,0,0,1,.766,6.174.828.828,0,0,1-.084.393.75.75,0,0,1-.624.3,3.614,3.614,0,0,1-1.831-.341,4.26,4.26,0,0,0,3.147,1.233.619.619,0,0,0,.7-.692,20.127,20.127,0,0,0-.761-6.174,17.233,17.233,0,0,1-.719-2.843,6.321,6.321,0,0,1,3.357-6.206c2.518-1.269,5.7-.734,8.115-2.187,1.878-1.133,2.9-3.237,3.824-5.246,1.012-2.172,1.574-4.055,3.672-5.277S496.505,155.8,495.456,153.722Z" transform="translate(-241.134 -80.99)"/><path class="k" d="M708.193,230.526c-7.229-.142-13.607-5.246-17.221-11.483a11.54,11.54,0,0,1-1.742-4.915,5.677,5.677,0,0,1,.2-1.175,12.2,12.2,0,0,0,.525-1.8,3.151,3.151,0,0,0,0-.734v-.042a4.34,4.34,0,0,0-1.574-3.53c-.965-.908-2.177-1.574-3.184-2.476-3.105-2.728-4.05-7.1-4.107-11.268v-.22c.037-1.784.178-3.572.163-5.356a22.52,22.52,0,0,0-.131-3.032,10.019,10.019,0,0,0-3.242-6.7c-5.172-4.2-13.869.173-19.225-3.793-1.3-.97-2.355-2.4-3.934-2.78a6.628,6.628,0,0,0-3.593.488c-3.945,1.3-8.346,3.011-9.888,6.819-.881,2.187-.635,4.684-1.443,6.9a34.445,34.445,0,0,1-2.256,4.165,6.521,6.521,0,0,0-.839,3.478,3.925,3.925,0,0,0,.257,1.852,4.721,4.721,0,0,0,1.285,1.841,6.116,6.116,0,0,1-.766,1.227c-1.007,1.233-2.555,2.1-3.6,3.326-1.941,2.25-1.867,5.309-.913,7.952s2.68,5.052,3.871,7.627a4.093,4.093,0,0,1,.393,3.478,9.972,9.972,0,0,1-1.742,2.025,6.363,6.363,0,0,0-1.574,3.515c-11.808,2.7-11.818,12.186-11.818,12.186h0l-6.379,16.041s-1.023,2.7-2.224,6.269l-7.548-1.353,5.246,8.781c-.991,3.578-1.694,6.893-1.464,8.561,0,0-2.345,11.016,1.825,12.941l9.2,4.139a5.45,5.45,0,0,0,1.275.572l.372.168a.986.986,0,0,0,.86,0h.126a1.238,1.238,0,0,0,.525-.079,1.049,1.049,0,0,0,.462-.5.158.158,0,0,1,0-.052l2.754-.8,2.334,2.764c1.049.74,2.1,1.38,3.09,1.957l-3.614,35.89s-.582,47.735-2.345,58.614a30.468,30.468,0,0,0-.409,8.645l-.068.115c.435,3.069,1.574,3.672,1.574,3.672V404.4a.342.342,0,0,0,.068.042,30.9,30.9,0,0,1,1.888-4.05v.787c-.037,4.05-.163,9.72-.582,13.408-.713,6.295,1.825,27.041,1.825,27.041l.876,18.884a17.458,17.458,0,0,1-2.151,9.2c-2.1,3.772-4.779,9.08-4.973,11.435a2.359,2.359,0,0,0,0,.383h0l-4.5,5.413s-1.757,2.717,2.214,3.814c2.135.593,5.817,0,8.776-.7a5.865,5.865,0,0,0,4.548-5.707,20.2,20.2,0,0,1,3.714-7.129l.74,4.349,4.952,1.227.635-11.918a5.246,5.246,0,0,0,.341-2.1h0c.976-8.477-2.3-7.716-2.3-7.716a.456.456,0,0,1,.157.294l-.157-.289h0c-2.009-3.966-1.049-10.491-1.049-10.491s2.623-18.884,3.52-23.873c.645-3.525.378-15.065.163-21.507a7.673,7.673,0,0,0-.026-.782c7.68-.1,17.09-.357,23.694-1v.776l-1.217,44.614a24.49,24.49,0,0,1-1.71,8.3.454.454,0,0,1-.058.152,36.192,36.192,0,0,0-2.418,11.692l-.567,14.163v.393h0c-.986.378-2.544,1.474-2.586,4.653-.068,4.658,8.141,3.105,8.141,3.105,8.2,0,8.272-8.54,8.272-8.54s.257-7.832.65-13.072-1.238-4.086-1.238-4.086l-.126,14.908V467.533l.126-1.894v-.052h0v-.4l1.033-15.375s7.559-25.62,8.729-30.535c.834-3.494.488-14.016.215-19.834a4.622,4.622,0,0,0-.042-.771c2.345-.21,4.417-.231,5.246-.231h.383s-.388-41.147-1.369-56.653-2.539-29.7-6.447-33.965c-2.361-2.581-5.65-10.549-7.868-16.45a82.291,82.291,0,0,0,14.462,4.721c12.374,2.591,10.68-8.152,10.68-8.152L701.1,267.623h.084a103.6,103.6,0,0,0-1.364-15.884,46.731,46.731,0,0,0-3.189-11.54c1.343-.525,2.67-1.086,3.971-1.663,3.362-1.484,7.15-3.588,7.632-7.213h-.163a4.677,4.677,0,0,0,.126-.8ZM631.486,259.9h0c.026,2.1-.052,5.739-.178,9.762l-3.929-5.246,3.939-6.389ZM684.131,270.555Zm1.637,7.937-6.547-2.1a29.378,29.378,0,0,1,4.044-5l.567-.525-.2.042.315-.289.189-.042-.3.289.357-.073a11.168,11.168,0,0,0,2.229,4.485c2.35,2.565-.645,3.216-.645,3.216Z" transform="translate(-304.439 -91.92)"/><path class="l" d="M645.1,715.66l-.766,14.52-4.884-1.222-1.028-6.038Z" transform="translate(-303.536 -340.251)"/><path class="f" d="M645.1,715.66l-.766,14.52-4.884-1.222-1.028-6.038Z" transform="translate(-303.536 -340.251)"/><path class="m" d="M716.48,683.187l7.449,1.542,5.524-4.878V666.1l.126-1.878v-.058h0v-.4l1.028-15.28s7.454-25.436,8.613-30.32c.818-3.462.477-13.911.2-19.687-.11-2.366-.2-3.95-.2-3.95l-16.445-3.981-.346,12.642-1.2,44.294a24.545,24.545,0,0,1-1.684,8.241l-.058.152a36.048,36.048,0,0,0-2.387,11.6l-.556,14.084v.388Z" transform="translate(-356.994 -291.334)"/><path class="f" d="M741.45,730.141v.388h0v-.4Z" transform="translate(-368.866 -357.695)"/><path class="f" d="M716.48,763.066l7.449,1.542,5.524-4.878v-1.17a1.574,1.574,0,0,1-.792,1.259l-.079.047a14.845,14.845,0,0,1-8.362,1.652l-2.906-.247a2.722,2.722,0,0,0-.771.189v.388Z" transform="translate(-356.994 -371.212)"/><path class="e" d="M726.309,747l.079-.042a1.574,1.574,0,0,0,.8-1.364l.121-14.8s1.605-1.149,1.217,4.055-.64,12.978-.64,12.978-.063,8.477-8.157,8.477c0,0-8.094,1.542-8.031-3.084s3.341-4.815,3.341-4.815l2.906.252A14.809,14.809,0,0,0,726.309,747Z" transform="translate(-354.721 -357.959)"/><path class="m" d="M642.52,684.433c.189,3.341,10.019,1.411,10.019,1.411L659.154,673s5.524-4.244,2.759-7.968a5.934,5.934,0,0,1-.4-.635l-.026-.031h0c-.058-.094-.11-.194-.163-.3h0c-1.983-3.934-1.007-10.386-1.007-10.386s2.565-18.758,3.467-23.7c.635-3.494.372-14.955.163-21.365-.084-2.665-.163-4.453-.163-4.453l-16.319-4.37v4.868c-.037,4.023-.163,9.652-.577,13.313-.7,6.227,1.8,26.847,1.8,26.847l.866,18.764a17.379,17.379,0,0,1-2.1,9.133c-2.046,3.745-4.721,9.022-4.9,11.357a2.288,2.288,0,0,0-.026.362Z" transform="translate(-321.831 -295.727)"/><path class="f" d="M642.516,742.993c.189,3.341,10.019,1.411,10.019,1.411l6.615-12.841s5.524-4.244,2.759-7.968a5.949,5.949,0,0,1-.4-.635c-.089,1.946-2.224,6.819-2.224,6.819s-5.461,10.927-7.2,13.429-9.279-.467-9.563-.572a2.3,2.3,0,0,0-.005.357Z" transform="translate(-321.827 -354.286)"/><path class="e" d="M656.9,722.284s3.231-.75,2.266,7.664h0a5.419,5.419,0,0,1-2.555,4.81,18.369,18.369,0,0,0-7.685,10.659h0a5.812,5.812,0,0,1-4.485,5.665c-2.917.682-6.552,1.28-8.655.692-3.918-1.091-2.182-3.787-2.182-3.787l4.5-5.335s7.837,3.084,9.568.577,7.2-13.423,7.2-13.423S657.858,722.993,656.9,722.284Z" transform="translate(-317.409 -353.957)"/><path class="f" d="M728.166,593.52l-.346,12.642c4.38-.425,7.517-1.018,8.052-1.852,1.159-1.794,5.366-2.549,8.944-2.859-.11-2.366-.2-3.95-.2-3.95Z" transform="translate(-362.386 -292.746)"/><path class="f" d="M651.94,607.588a6,6,0,0,1,1.8-2.172c1.731-.96,1.542,6.169,1.542,6.169s5.77.052,13.14-.042c-.084-2.665-.163-4.459-.163-4.459L651.94,602.72S651.971,604.745,651.94,607.588Z" transform="translate(-326.309 -297.12)"/><path class="d" d="M646.849,507.271s1.93-5.246,3.672-6.179,1.542,6.164,1.542,6.164,42.4.388,44.514-2.89,14.452-3.084,14.452-3.084-.383-40.853-1.348-56.264-2.5-29.486-6.358-33.724c-2.492-2.743-6.038-11.619-8.23-17.536-1.191-3.231-1.983-5.587-1.983-5.587l-40.465,2.308-.33,3.278-4.3,42.972s-.577,47.4-2.313,58.195S646.849,507.271,646.849,507.271Z" transform="translate(-323.081 -195.114)"/><g class="n" transform="translate(322.116 193.056)"><path d="M701.7,504.365c2.1-3.273,14.452-3.084,14.452-3.084s-.383-40.853-1.348-56.264-2.5-29.486-6.358-33.724c-2.5-2.754-6.038-11.619-8.23-17.536-1-2.717-1.721-4.81-1.92-5.408l3.147-.178s.792,2.355,1.988,5.587c2.193,5.917,5.733,14.793,8.225,17.536,3.856,4.238,5.4,18.307,6.358,33.724s1.353,56.264,1.353,56.264-12.332-.189-14.457,3.084c-1.81,2.8-33.005,2.927-42.059,2.9C674.469,507.24,700.062,506.894,701.7,504.365Z" transform="translate(-653.613 -388.17)"/><path d="M647.27,603.358c.782-.435,1.17.771,1.364,2.235a30.26,30.26,0,0,0-1.82,3.945s-1.117-.6-1.574-3.672A7.141,7.141,0,0,1,647.27,603.358Z" transform="translate(-645.24 -490.436)"/></g><path class="i" d="M664.916,194.486c-2.8,3.819.031,9.248-2.974,12.962-.991,1.227-2.518,2.1-3.551,3.3-1.915,2.235-1.841,5.272-.9,7.895s2.623,5.015,3.819,7.575a4.052,4.052,0,0,1,.388,3.452,9.777,9.777,0,0,1-1.721,2.009,7.246,7.246,0,0,0-.944,7.69c1.039,2.539,3.021,4.721,4.978,6.872a3.4,3.4,0,0,0,4.936,1.128,19.409,19.409,0,0,0,8.834-25.331c-1.626-3.9-4.338-7.632-4.365-11.75,0-3.268,1.679-6.389,1.978-9.641.362-3.955-1.978-10.234-6.751-11.96C668.955,191.229,666.337,192.525,664.916,194.486Z" transform="translate(-328.642 -100.273)"/><path class="f" d="M664.916,194.486c-2.8,3.819.031,9.248-2.974,12.962-.991,1.227-2.518,2.1-3.551,3.3-1.915,2.235-1.841,5.272-.9,7.895s2.623,5.015,3.819,7.575a4.052,4.052,0,0,1,.388,3.452,9.777,9.777,0,0,1-1.721,2.009,7.246,7.246,0,0,0-.944,7.69c1.039,2.539,3.021,4.721,4.978,6.872a3.4,3.4,0,0,0,4.936,1.128,19.409,19.409,0,0,0,8.834-25.331c-1.626-3.9-4.338-7.632-4.365-11.75,0-3.268,1.679-6.389,1.978-9.641.362-3.955-1.978-10.234-6.751-11.96C668.955,191.229,666.337,192.525,664.916,194.486Z" transform="translate(-328.642 -100.273)"/><path class="f" d="M703.589,464.55c-5.608.294-10.885,2.707-15.794,5.434s-9.662,5.817-14.945,7.753" transform="translate(-336.251 -231.428)"/><path class="f" d="M700.952,489.74a23.117,23.117,0,0,0-14.557,7.082c-1.364,1.443-2.539,3.058-3.96,4.443a17.594,17.594,0,0,1-7.805,4.422" transform="translate(-337.097 -243.405)"/><path class="f" d="M698.231,508.91a25.45,25.45,0,0,0-11.708,7.061c-.86.929-1.642,1.92-2.5,2.848-4.642,4.983-11.2,7.627-17.531,10.129" transform="translate(-333.227 -252.519)"/><path class="m" d="M705.917,242.814a115.112,115.112,0,0,0,1.154,13.387c.525,3.147,1.259,5.98,2.313,7.234,3.084,3.672-15.029,8.577-15.029,8.577l-10.7-8.288s8.477-7.805,4.527-15.417S705.917,242.814,705.917,242.814Z" transform="translate(-341.39 -125.877)"/><path class="f" d="M658.79,393.757h42.778c-1.191-3.231-1.983-5.587-1.983-5.587l-40.465,2.308Z" transform="translate(-329.566 -195.114)"/><path class="g" d="M645.971,337.868h45.736a15.87,15.87,0,0,1,1.831-12.128,26.807,26.807,0,0,1,4.789-6.211l.315-.289,15.968-3.536.86-.189s.131-29.034-10.15-33.021a60.109,60.109,0,0,1-16.445-9.374l-14.126,4.364-10.407-5.246c-3.341,3.593-12.207,2.182-12.207,2.182-14.515,1.668-14.515,12.589-14.515,12.589s8.477,19.781,9.122,19.781S645.971,337.868,645.971,337.868Z" transform="translate(-319.501 -139.996)"/><path class="f" d="M672.31,357.011s-9.327-2.067-12.5-5.681" transform="translate(-330.051 -177.599)"/><path class="f" d="M763.486,341.51l-10.816,8.865a18.422,18.422,0,0,0,.357,2.1l.315-.288,15.968-3.536Z" transform="translate(-374.2 -172.93)"/><path class="f" d="M717.46,380.059s2.366,1.332,5.99,3.084h6.216a15.869,15.869,0,0,1,1.831-12.128l-10.958-3.546C724.269,370.937,717.46,380.059,717.46,380.059Z" transform="translate(-357.46 -185.273)"/><path class="g" d="M632.391,293.76l-6.421,3.467-6.295,15.931s-6.552,17.468-5.912,22.094c0,0-2.308,10.921,1.8,12.846l10.7,4.847a1,1,0,0,0,1.285-1.374c-1.526-2.89-3.205-7.412-.525-9.9l-3.084-6.421,11.147-18.244,3.724-6.295Z" transform="translate(-307.852 -150.228)"/><path class="f" d="M677.014,351.2c.556,2.266,2.434,5.77,8.65,7.076l6.819,5.587,7.255,3.289,2.959,1.338,1.254-9.059-2.848-1.574-3.32-1.815s-7.491-13.57-19.351-7.868a2.623,2.623,0,0,0-1.416,3.027Z" transform="translate(-338.191 -175.432)"/><path class="m" d="M677.764,349.756c.556,2.271,2.429,5.77,8.645,7.076l6.819,5.587,7.26,3.289,2.953,1.338,1.254-9.059-2.848-1.574-3.294-1.8s-7.5-13.57-19.356-7.842a2.623,2.623,0,0,0-1.432,2.985Z" transform="translate(-338.553 -174.761)"/><circle class="f" cx="16.571" cy="16.571" r="16.571" transform="translate(336.006 95.545)"/><circle class="m" cx="16.571" cy="16.571" r="16.571" transform="translate(336.006 95.162)"/><path class="f" d="M718.363,285.3l-4.983-9.683s7.291-2.948,7.821-6.363,6.987,4,5.592,6.463S718.363,285.3,718.363,285.3Z" transform="translate(-355.52 -138.155)"/><path class="g" d="M718.363,283.826l-4.983-9.683s7.291-2.948,7.821-6.363,6.987,4.008,5.592,6.463S718.363,283.826,718.363,283.826Z" transform="translate(-355.52 -137.456)"/><path class="o" d="M627.12,343.6l27.534,37.018s-10.15,5.524-24.13-4.364l-6.038-7.2L607.25,340Z" transform="translate(-305.062 -172.212)"/><path class="m" d="M634.215,376.586l2.507-.068s15.317-14.866,19.078-7.344-9.542,14.551-9.542,14.551l-4.044,2.182-5.272,1.574-3.373-4.527Z" transform="translate(-317.576 -185.072)"/><path class="f" d="M634.77,391.832a3.742,3.742,0,0,1,.063,2.591,1.049,1.049,0,0,1-.456.5,1.169,1.169,0,0,1-.525.073,5.272,5.272,0,0,1-3.457-1.71,15.788,15.788,0,0,1-2.24-3.242,5.98,5.98,0,0,1-1.149-3.861c.273-1.474,1.574-2.5,2.848-3.326,2.539-1.679,2.623.278,3.179,2.439S634.188,389.65,634.77,391.832Z" transform="translate(-314.432 -192.287)"/><path class="g" d="M634.038,391.832a3.773,3.773,0,0,1,.063,2.591,1.049,1.049,0,0,1-.456.5,1.18,1.18,0,0,1-.525.073,5.246,5.246,0,0,1-3.457-1.71,15.608,15.608,0,0,1-2.245-3.242,5.944,5.944,0,0,1-1.144-3.861c.268-1.474,1.574-2.5,2.843-3.326,2.544-1.679,2.623.278,3.184,2.439S633.451,389.65,634.038,391.832Z" transform="translate(-314.083 -192.287)"/><path class="f" d="M623.85,315.976l1.28-2.166-1.117,4.023Z" transform="translate(-296.609 -149.196)"/><path class="f" d="M721.19,375.725l2.953,1.338L725.4,368l-2.848-1.574C724.516,368.686,722.8,372.856,721.19,375.725Z" transform="translate(-359.234 -184.778)"/><path class="f" d="M731.476,362.27s-9.536.582-13.586-2.02" transform="translate(-357.665 -181.84)"/><g class="n" transform="translate(332.025 132.999)"><path d="M737.679,328.009a26.85,26.85,0,0,1,4.789-6.216,12.791,12.791,0,0,1,1.411-.766l14.866-3.053.86-.189s.131-29.034-10.145-33.021a61.753,61.753,0,0,1-16.031-9.028l1.128-.346A59.948,59.948,0,0,0,751,284.764c10.281,3.981,10.145,33.021,10.145,33.021h-1.542L744.393,320.7s-.656.635-.855.818a29.479,29.479,0,0,0-4.863,6.431,16.125,16.125,0,0,0-1.275,12.191h-1.574A16.035,16.035,0,0,1,737.679,328.009Z" transform="translate(-697.078 -274.493)"/><path d="M664.13,277.91c.247-.037.483-.073.74-.1a26.592,26.592,0,0,0,3.147.257A28.608,28.608,0,0,1,664.13,277.91Z" transform="translate(-664.13 -275.644)"/><path d="M697.171,278.941l-9.411-4.763a4.973,4.973,0,0,0,.525-.5l9.82,4.968Z" transform="translate(-675.365 -273.68)"/></g><path class="g" d="M747.466,340l6.295,7.711,1.285,20.94s1.668,10.659-10.533,8.089-26.323-10.512-26.323-10.512,6.819-9.122,3.084-12.589l17.473,5.655s2.953-.645.64-3.21-2.722-7.2-2.722-7.2Z" transform="translate(-357.807 -172.212)"/><path class="f" d="M779.42,382.17l3.467,3.981A5,5,0,0,1,779.42,382.17Z" transform="translate(-386.918 -192.261)"/><path class="f" d="M736.99,360.8l5.4,6.935-2.7.645Z" transform="translate(-350.4 -171.537)"/><path class="f" d="M665.333,197.908a5.535,5.535,0,0,1,.577-4.516,35.667,35.667,0,0,0,2.229-4.139c.792-2.193.551-4.674,1.416-6.819,1.526-3.8,5.865-5.5,9.752-6.819a6.556,6.556,0,0,1,3.546-.483c1.574.372,2.6,1.8,3.882,2.759,5.277,3.934,13.859-.4,18.963,3.766a9.926,9.926,0,0,1,3.194,6.651,58.726,58.726,0,0,1-.031,7.564c-.084,4.417.745,9.248,4.05,12.175,1,.881,2.172,1.542,3.147,2.455a4.3,4.3,0,0,1,1.574,3.509,12.186,12.186,0,0,1-.525,1.784c-.656,2.3.325,4.721,1.521,6.819,3.567,6.174,9.856,11.262,16.985,11.4-.477,3.6-4.2,5.686-7.527,7.16-4.2,1.883-8.666,3.73-13.287,3.494s-9.442-3.195-10.25-7.748c-.278-1.574-.241-3.467-1.574-4.286-.818-.5-1.878-.372-2.759-.745-1.275-.525-1.9-1.957-2.324-3.273a29.462,29.462,0,0,1-1.369-8.393c-.058-3.378.388-7.066-1.526-9.846-1.773-2.576-4.92-3.882-6.966-6.248-1.888-2.193-3.939-4.836-7.034-5.246C676.716,198.285,667.861,204.1,665.333,197.908Z" transform="translate(-332.547 -93.78)"/><path class="i" d="M665.333,196.438a5.535,5.535,0,0,1,.577-4.516,35.666,35.666,0,0,0,2.229-4.139c.792-2.193.551-4.674,1.416-6.819,1.526-3.808,5.865-5.508,9.752-6.819a6.556,6.556,0,0,1,3.546-.483c1.574.372,2.6,1.8,3.882,2.759,5.277,3.934,13.859-.4,18.963,3.766a9.927,9.927,0,0,1,3.194,6.657,58.641,58.641,0,0,1-.031,7.559c-.084,4.417.745,9.248,4.05,12.175,1,.881,2.172,1.542,3.147,2.455a4.3,4.3,0,0,1,1.574,3.509,12.185,12.185,0,0,1-.525,1.783c-.656,2.3.325,4.721,1.521,6.819,3.577,6.153,9.841,11.257,16.969,11.4-.477,3.6-4.2,5.686-7.527,7.165-4.2,1.878-8.666,3.724-13.287,3.488s-9.442-3.195-10.25-7.748c-.278-1.574-.241-3.467-1.574-4.286-.818-.5-1.878-.372-2.759-.745-1.275-.525-1.9-1.957-2.324-3.273a29.431,29.431,0,0,1-1.369-8.393c-.058-3.378.388-7.066-1.526-9.846-1.773-2.576-4.92-3.882-6.966-6.248-1.888-2.193-3.939-4.836-7.034-5.246C676.716,196.815,667.861,202.643,665.333,196.438Z" transform="translate(-332.547 -93.082)"/><path class="f" d="M685.037,284.53l9.5-7.711s-6.5-3.525-7.281-6.531-5.98,1.427-5.45,4.123S685.037,284.53,685.037,284.53Z" transform="translate(-340.491 -138.59)"/><path class="g" d="M685.776,282.325l9.5-7.706s-6.5-3.525-7.249-6.531-5.98,1.427-5.45,4.123S685.776,282.325,685.776,282.325Z" transform="translate(-340.857 -137.544)"/><circle class="f" cx="0.755" cy="0.755" r="0.755" transform="translate(354.036 142.771)"/><circle class="f" cx="0.755" cy="0.755" r="0.755" transform="translate(354.036 146.968)"/><circle class="f" cx="0.755" cy="0.755" r="0.755" transform="translate(354.036 151.159)"/><g class="n" transform="translate(332.632 86.192)"><path d="M672,190.9c.75-2.062.587-4.375,1.29-6.452a7.051,7.051,0,0,0-.8,1.479c-.871,2.166-.624,4.648-1.422,6.819l-.052.126A11.986,11.986,0,0,0,672,190.9Z" transform="translate(-668.008 -184.45)"/><path d="M729.207,253.293c-4.2,1.878-8.666,3.724-13.287,3.488s-9.442-3.195-10.25-7.743c-.278-1.574-.241-3.473-1.574-4.291-.818-.5-1.878-.372-2.759-.745-1.275-.525-1.9-1.957-2.324-3.273a29.429,29.429,0,0,1-1.369-8.393c-.058-3.373.393-7.061-1.521-9.846-1.778-2.576-4.926-3.876-6.971-6.248-1.888-2.187-3.94-4.836-7.034-5.246-4.244-.577-13.114,5.246-15.621-.955a4.879,4.879,0,0,1,.163-3.583c-.184.309-.362.619-.525.934a5.557,5.557,0,0,0-.572,4.522c2.523,6.19,11.378.372,15.621.955,3.095.42,5.146,3.069,7.034,5.246,2.046,2.371,5.193,3.672,6.966,6.253,1.92,2.78,1.469,6.468,1.526,9.841a29.429,29.429,0,0,0,1.369,8.393c.42,1.322,1.049,2.738,2.324,3.273.881.372,1.941.252,2.759.745,1.353.818,1.317,2.733,1.574,4.291.818,4.548,5.634,7.506,10.25,7.743s9.064-1.605,13.287-3.488c3.042-1.353,6.431-3.226,7.344-6.295C734.159,250.864,731.578,252.238,729.207,253.293Z" transform="translate(-665.288 -194.914)"/></g><path class="p" d="M872.749,298.768c-11.1-6.389-15.3-7.963-15.322-7.963l-.231-.163a9.238,9.238,0,0,1-2.8-3.536,7.387,7.387,0,0,1,0-.761.314.314,0,0,0,0,.073c.173-3.383,2.581-6.463,4.863-9.148l5.838-6.867a6.766,6.766,0,0,0,1.505-2.382,5.494,5.494,0,0,0,.157-1.464v-.6c-.031-1.7-.079-3.415-.142-5.12-.052-1.49-.435-3.368-1.925-3.672-.776-.157-1.8.121-2.214-.525a1.275,1.275,0,0,1-.1-.886.3.3,0,0,0,0,.073v-.084a19.762,19.762,0,0,0,.551-3.509,4.781,4.781,0,0,0-.241-1.778c-.86-2.471-3.834-3.488-6.463-3.955s-5.576-.866-7.223-2.922a21.376,21.376,0,0,0-1.437-1.978,5.671,5.671,0,0,0-2.686-1.327,15.212,15.212,0,0,0-9.773.85c-1.269.567-2.544,1.332-3.939,1.248s-2.686-1.091-4.113-1.332c-2.308-.393-4.516,1.3-5.655,3.31a8.1,8.1,0,0,0-1.049,3.9v.231h0a5.707,5.707,0,0,0,1.5,3.987c1,1.049,2.476,1.742,2.89,3.1.168.551.126,1.149.278,1.71a1.544,1.544,0,0,0,.063.2l-.073.1a17.311,17.311,0,0,0-3.672,10.67,17.709,17.709,0,0,0,12.443,16.786c0,.173,0,.346,0,.525a7.547,7.547,0,0,1-2.413,5.875L815.64,297.73s-9.484-1.128-12.9,12.731a23.631,23.631,0,0,0-.587,7.029,20.377,20.377,0,0,1-2.623,10.528c-3.887,7.617-3,25.1,4.952,26.831,7.506,1.637,10.444.955,10.754.876v.3c-.126,3.284-1.317,31.579-5.644,35-1.2.949-.976,1.574,0,2.02,0,0,0,.184-.026.525-.131,2.1-.8,9.967-3.672,14.436-3.362,5.193-3.011,35.146-3.011,35.146l-2.292,17.657s1.411,10.906,0,12.81c-1.264,1.694-2.943,42.038-3.294,50.788h-.147a4.259,4.259,0,0,0-3.4,2.1c-1.857,3.016-8.361,8.592-8.361,8.592-1.411,2-6.631,3.924-9.39,4.826a5.832,5.832,0,0,0-1.049.462,5.6,5.6,0,0,0-2.371,2.5,2.681,2.681,0,0,0-.252,2.1c.7,1.726,15.375,2.943,19.089,1.206,2.917-1.359,14.478-3.147,19.278-3.85a3.955,3.955,0,0,0,3.431-3.431,2.261,2.261,0,0,0-.441-1.715h0c-.918-1.138-1.385-4.249-1.574-6.295a4.257,4.257,0,0,0,1.081-.64,46.082,46.082,0,0,1,2.623-18.522c3.535-9.348,4.6-26.658,3.714-37.91,0,0,10.78-46.392,19.267-50.72h0c.131.168,4.249,5.45,4.773,21.811.525,16.618,6.536,27.524,6.536,27.524s-2.654,28.216,0,38.776l-3.467,16.655c-.257-.215-.42-.383-.42-.383s.1.462.247,1.2l-.073.357.152.031a32.78,32.78,0,0,1,.734,7.868c-.136,1.212-.477,2.875-.708,4.506-.367,2.565-.467,5.052.881,5.6,2.214.892,15.212,2.1,17.415-.755a4.086,4.086,0,0,0,.64-4.275,4.328,4.328,0,0,0-.64-1.091s-3.452-5.639-2.476-9.615a2.927,2.927,0,0,0-.414-2.282,117.277,117.277,0,0,1,2.974-18.653c2.214-8.33,6.877-26.6,3.446-38.6h0q-.194-.708-.441-1.385A51.843,51.843,0,0,1,866,450.135a41.276,41.276,0,0,1,0-17.657c2.124-9.694,3.609-19.215,3.609-19.215s1.17-12.81.147-20.662a5.164,5.164,0,0,0-.068-.525l.556-.126s-3.006-13.329-4.065-21.811c-.252-2-.577-4.537-.934-7.244a18.492,18.492,0,0,0,2.88-.719c9.542-3.289,12.547-33.047,12.547-33.047v-9.442S883.885,305.173,872.749,298.768ZM801.639,528.652c-.294-.147-.467-.247-.467-.247h0Z" transform="translate(-383.492 -124.591)"/><path class="q" d="M890.327,603.035c4.139,11.9-.692,31.222-2.937,39.867a120.518,120.518,0,0,0-2.932,18.979,39.968,39.968,0,0,1-15.181-.346l3.625-17.767c-2.591-10.523,0-38.644,0-38.644s-5.865-10.869-6.384-27.429c-.525-16.3-4.527-21.57-4.653-21.732h0c-8.278,4.312-18.8,50.547-18.8,50.547.86,11.21-.178,28.463-3.625,37.768a46.686,46.686,0,0,0-2.586,18.454c-1.207,1.049-2.885,1.2-4.721.9-4.926-.8-10.832-5.041-10.832-5.041s1.894-50.358,3.279-52.267,0-12.768,0-12.768l2.24-17.594s-.346-29.847,2.932-35.02c2.833-4.469,3.483-12.327,3.609-14.389v-.525l4.994-5.98s48.3-3.625,51.932,0c.886.886,1.437,2.911,1.762,5.455,1,7.826-.147,20.589-.147,20.589s-1.448,9.489-3.52,19.146a42.026,42.026,0,0,0,0,17.6A52.683,52.683,0,0,0,890.327,603.035Z" transform="translate(-406.83 -257.049)"/><path class="l" d="M930.623,804.575c-2.156,2.848-14.835,1.642-17,.755-1.317-.525-1.217-3.027-.86-5.581.226-1.621.556-3.278.692-4.485.341-3.105-1.049-9.405-1.049-9.405s2.843,3.022,3.53,0a3.29,3.29,0,0,1,2.465-2.339,6.441,6.441,0,0,1,4.48.278c2.24.976,5.975,3.048,5.309,5.849-.949,3.96,2.413,9.584,2.413,9.584a4.365,4.365,0,0,1,.63,1.081,4.139,4.139,0,0,1-.614,4.265Z" transform="translate(-450.147 -382.948)"/><path class="f" d="M930.736,819.536c-2.156,2.848-14.835,1.642-17,.755-1.317-.524-1.217-3.027-.86-5.581,1.364.64,3.672,1.17,7.538.813a21.251,21.251,0,0,1,2.712-.084,63.056,63.056,0,0,0,8.236-.168A4.139,4.139,0,0,1,930.736,819.536Z" transform="translate(-450.26 -397.908)"/><path class="f" d="M852.872,637.458c.86,11.21-.178,28.463-3.625,37.768a46.688,46.688,0,0,0-2.586,18.454c-1.206,1.049-2.885,1.2-4.721.9,1.049-7.276,5.476-38.623,8.314-63.393a103.732,103.732,0,0,1,18.36-47.609l3.016,3.32C863.395,591.223,852.872,637.458,852.872,637.458Z" transform="translate(-416.643 -288.02)"/><path class="r" d="M905.4,321.889l-2.1,10.35-10.318,17.337-12.721-5.434s-17.31-18.113-6.426-20.7a9.633,9.633,0,0,0,3.609-1.605,7.463,7.463,0,0,0,2.817-6.242,19.136,19.136,0,0,0-1.752-7.417l22.252-6.987a35.721,35.721,0,0,0-1.574,9.012c-.173,6.064,2.1,9.049,3.929,10.491A6.684,6.684,0,0,0,905.4,321.889Z" transform="translate(-430.097 -153.76)"/><path class="f" d="M908.231,301.19a35.713,35.713,0,0,0-1.574,9.012,16.958,16.958,0,0,1-1.3,1.38,17.6,17.6,0,0,1-17.594,4.013A19.137,19.137,0,0,0,886,308.177Z" transform="translate(-437.591 -153.76)"/><path class="r" d="M901.348,279.814a17.515,17.515,0,1,1-5.131-12.465,17.6,17.6,0,0,1,5.131,12.465Z" transform="translate(-428.153 -135.232)"/><path class="f" d="M905.4,339.552l-2.1,10.35-10.318,17.337L880.258,361.8s-17.31-18.113-6.426-20.7a9.632,9.632,0,0,0,3.609-1.605c-1.962,5.392,6.137,16.613,6.137,16.613.944,1.39,3.105.525,3.105.525,5.219-.792,14.824-15.8,16.393-18.3a6.684,6.684,0,0,0,2.319,1.212Z" transform="translate(-430.097 -171.423)"/><path class="f" d="M903.039,525.506c-3.063.7-20.012,4.448-26.438,3.509-7.071-1.049-20.82-1.721-20.82-1.721s-8.755.472-11.451-.761v-.525l4.994-5.98s48.3-3.625,51.932,0C902.163,520.937,902.714,522.962,903.039,525.506Z" transform="translate(-417.779 -257.04)"/><path class="g" d="M860.38,356.779s-9.1-12.589-5.671-17.52l-15.375,6.295s-9.253-1.123-12.589,12.689a24.034,24.034,0,0,0-.572,7.008,20.733,20.733,0,0,1-2.534,10.491c-3.793,7.59-2.932,25.016,4.831,26.753s10.517.86,10.517.86-1.049,31.568-5.518,35.193,11.435,2.759,11.435,2.759,13.749.692,20.825,1.726,26.91-3.625,26.91-3.625-2.932-13.282-3.971-21.733-3.457-26.454-3.457-26.454l17.594-23.836s3.105-14.4-7.763-20.788-14.955-7.947-14.955-7.947-10.921,17.783-16.613,18.643C863.485,357.293,861.324,358.164,860.38,356.779Z" transform="translate(-406.903 -171.57)"/><path class="f" d="M854.522,382.74s-.168,5.7.865,7.937,4.831,14.688,4.831,14.688H851.59s4.658-5,4.317-7.423S854.522,382.74,854.522,382.74Z" transform="translate(-421.231 -192.532)"/><path class="r" d="M880.942,442.717s-19.052-4.658-20.825-8.624-6.667-12.846-6.667-12.846l2.009-2.707,9.264,7.27s11.016,8.8,16.219,9.662S880.942,442.717,880.942,442.717Z" transform="translate(-422.115 -209.553)"/><path class="s" d="M880.942,442.717s-19.052-4.658-20.825-8.624-6.667-12.846-6.667-12.846l2.009-2.707,9.264,7.27s11.016,8.8,16.219,9.662S880.942,442.717,880.942,442.717Z" transform="translate(-422.115 -209.553)"/><path class="r" d="M906.066,421.776V432.11h-1.658a48.306,48.306,0,0,0-23.467,6.079l-3.107,1.721-.834.467-5.35-12.065,5-4.485h.257c1.222.121,6.515.561,8.76-.194,2.13-.724,4.773-3.016,11.047-1.416,3.09.792,5.733,4.254,8.729,3.174Z" transform="translate(-430.768 -211.037)"/><path class="f" d="M934.954,375.372l3.446,3.882v9.405s-2.932,29.669-12.243,32.948-25.945-1.9-25.945-1.9-4.3-11.383-2.287-12.065,17.756-4.847,17.756-4.847-.22-17.4,3.226-22.582c0,0-2.24-16.214,5.524-16.56S934.954,375.372,934.954,375.372Z" transform="translate(-443.006 -183.454)"/><path class="g" d="M935.956,375.372l3.452,3.882v9.405s-2.932,29.669-12.249,32.948-25.945-1.9-25.945-1.9-4.3-11.383-2.282-12.065,17.756-4.847,17.756-4.847-.226-17.4,3.226-22.582c0,0-2.245-16.214,5.518-16.56S935.956,375.372,935.956,375.372Z" transform="translate(-443.484 -183.454)"/><path class="f" d="M899.784,287.226a6.936,6.936,0,0,0-.393-3.362,2.56,2.56,0,0,0-2.738-1.574c-1.474.346-2.1,2.266-3.557,2.728a2.842,2.842,0,0,1-3.147-1.616,8.048,8.048,0,0,1-.6-3.756v-4.322c0-1.574-.052-3.263-1.018-4.5-1.2-1.532-4.029-2.2-5.917-2.14a5.02,5.02,0,0,0-3.378,1.359,4.348,4.348,0,0,1-3.551,1.264,3.058,3.058,0,0,1-2.476-2.14v-.052a17.594,17.594,0,1,1,26.155,23.353A47.441,47.441,0,0,0,899.784,287.226Z" transform="translate(-431.415 -135.175)"/><path class="t" d="M871.352,261.127a3.084,3.084,0,0,1-2.481-2.145c-.142-.556-.1-1.149-.268-1.7-.4-1.359-1.852-2.062-2.822-3.095-1.941-2.062-1.815-5.45-.441-7.931,1.112-2,3.263-3.672,5.518-3.294,1.4.241,2.623,1.233,4.018,1.327s2.623-.677,3.845-1.243a14.488,14.488,0,0,1,9.557-.85,5.507,5.507,0,0,1,2.623,1.327,22.932,22.932,0,0,1,1.4,1.967c1.605,2.046,4.485,2.45,7.05,2.911s5.466,1.479,6.295,3.945c.561,1.637,0,3.41-.3,5.109a1.542,1.542,0,0,0,.068,1.049c.4.661,1.406.383,2.161.525,1.453.309,1.825,2.182,1.883,3.672q.089,2.549.136,5.1a6.5,6.5,0,0,1-.152,1.888,6.668,6.668,0,0,1-1.464,2.376l-5.7,6.846c-2.528,3.032-5.209,6.568-4.721,10.491-1.2.525-2.623-.5-3.011-1.752a7.836,7.836,0,0,1,.189-3.887,47.656,47.656,0,0,0,.913-6.741,6.914,6.914,0,0,0-.393-3.357,2.56,2.56,0,0,0-2.738-1.574c-1.479.346-2.1,2.266-3.557,2.728a2.842,2.842,0,0,1-3.147-1.616,8.026,8.026,0,0,1-.6-3.751v-4.328c0-1.574-.052-3.263-1.018-4.5-1.2-1.532-4.029-2.2-5.917-2.14a5.02,5.02,0,0,0-3.373,1.359A4.355,4.355,0,0,1,871.352,261.127Z" transform="translate(-427.281 -125.5)"/><path class="f" d="M885.3,381.92l5.4,22.194S894.962,404.088,885.3,381.92Z" transform="translate(-437.258 -192.143)"/><path class="f" d="M916,374.85s-7.071,11.582-4.312,23.563l1.317.094S910.657,392.963,916,374.85Z" transform="translate(-449.502 -188.781)"/><path class="f" d="M929,499.261s8.687-2.875,9.316,3.793C938.337,503.054,936.7,498.485,929,499.261Z" transform="translate(-458.035 -247.638)"/><path class="f" d="M867.73,426.81s-1.726,12.065,1.38,16.907a37.834,37.834,0,0,1-15.181,2.072L852.88,426.81Z" transform="translate(-421.844 -213.485)"/><path class="f" d="M877.835,441.873l-.834.467-5.35-12.065,5-4.485h.257C876.833,426.388,875.437,436.759,877.835,441.873Z" transform="translate(-430.768 -213)"/><path class="g" d="M863.209,425.83s-1.726,12.065,1.38,16.9a37.724,37.724,0,0,1-15.181,2.072L843.37,425.83Z" transform="translate(-417.323 -213.019)"/><path class="l" d="M815.674,796.832a3.908,3.908,0,0,1-3.352,3.42c-4.684.7-15.968,2.481-18.816,3.84-3.625,1.726-17.94.524-18.632-1.207a2.738,2.738,0,0,1,.247-2.1,5.529,5.529,0,0,1,2.313-2.486,6.14,6.14,0,0,1,1.049-.462c2.7-.9,7.79-2.806,9.164-4.81,0,0,6.352-5.555,8.162-8.556a4.144,4.144,0,0,1,3.315-2.067c1.511-.068,3.195.692,3.887,4,0,0,8.272,4.721,10.491.582,0,0,.346,6.358,1.721,8.1h0A2.309,2.309,0,0,1,815.674,796.832Z" transform="translate(-384.707 -382.548)"/><path class="f" d="M815.674,808.332a3.908,3.908,0,0,1-3.352,3.42c-4.684.7-15.968,2.481-18.816,3.84-3.625,1.726-17.94.524-18.632-1.206a2.738,2.738,0,0,1,.247-2.1,5.53,5.53,0,0,1,2.313-2.486c2.334,1.574,7.517,3.063,18.916,1.285,10.874-1.7,16.261-3.362,18.884-4.5h0a2.309,2.309,0,0,1,.441,1.742Z" transform="translate(-384.707 -394.047)"/><g class="n" transform="translate(437.018 124.407)"><path d="M942.436,268.522v-.084a15.451,15.451,0,0,0,.525-3.918,25.859,25.859,0,0,1-.525,3.147A1.911,1.911,0,0,0,942.436,268.522Z" transform="translate(-901.418 -260.733)"/><path d="M895.237,281.236a4.986,4.986,0,0,1,.425,1.972,5.95,5.95,0,0,0-.425-2.749,2.55,2.55,0,0,0-2.733-1.574c-1.479.346-2.1,2.266-3.562,2.728A2.849,2.849,0,0,1,885.795,280a7.983,7.983,0,0,1-.6-3.756V271.92c0-1.574-.052-3.263-1.018-4.5-1.207-1.537-4.029-2.2-5.917-2.145a5.026,5.026,0,0,0-3.378,1.364,4.358,4.358,0,0,1-3.557,1.264,3.074,3.074,0,0,1-2.476-2.14c-.142-.556-.1-1.154-.267-1.7-.4-1.353-1.852-2.061-2.822-3.09a5.649,5.649,0,0,1-1.453-3.672,5.88,5.88,0,0,0,1.453,4.422c.97,1.049,2.418,1.736,2.822,3.09.163.525.126,1.149.268,1.7a3.073,3.073,0,0,0,2.476,2.14,4.358,4.358,0,0,0,3.557-1.264,5.025,5.025,0,0,1,3.378-1.364c1.888-.058,4.721.608,5.917,2.145.965,1.233,1.012,2.927,1.018,4.5v4.322a7.94,7.94,0,0,0,.6,3.751,2.856,2.856,0,0,0,3.147,1.621c1.448-.462,2.1-2.382,3.562-2.728A2.649,2.649,0,0,1,895.237,281.236Z" transform="translate(-864.285 -257.3)"/><path d="M939.536,292.867a6.63,6.63,0,0,1-1.469,2.371l-5.7,6.845c-2.4,2.88-4.931,6.216-4.721,9.893.173-3.373,2.523-6.442,4.721-9.117l5.7-6.845a6.629,6.629,0,0,0,1.469-2.371,6.545,6.545,0,0,0,.152-1.894A5,5,0,0,1,939.536,292.867Z" transform="translate(-894.405 -273.679)"/><path d="M921.829,327.273a4.035,4.035,0,0,1-.173-.923,4.649,4.649,0,0,0,.173,1.7c.388,1.248,1.81,2.282,3.011,1.747a7.345,7.345,0,0,1-.063-.755C923.581,329.518,922.2,328.5,921.829,327.273Z" transform="translate(-891.554 -290.129)"/></g><path class="f" d="M812.69,789.36s1.8,3.147,8.341.378" transform="translate(-402.736 -385.856)"/><path class="f" d="M918,790.82s5.634,6.636,12.736,2.177" transform="translate(-452.805 -386.55)"/><path class="f" d="M945.532,641.23s-3.981,2.486-4.107,3.908,2.056-1.049,2.056-1.049Z" transform="translate(-463.94 -315.429)"/><path class="f" d="M945.781,677.59a8.324,8.324,0,0,1-4.9,1.915c-2.98.131-2.728,4.013-.782,2.848A48.816,48.816,0,0,0,945.781,677.59Z" transform="translate(-462.615 -332.716)"/><path class="f" d="M950.562,682.34s-1.909,9.384-3.462,7.575" transform="translate(-466.64 -334.974)"/><path class="u" d="M245.271,537.563s11.986,3.289,17.756-1.086,8.272-2.969,8.272-2.969,13.759-.761,14.892-4.013-5.277-15.065-5.277-15.065c-.456-1.049-1.123-2.382-1.422-2.382l.063-4.983h0l1.993-20.851c4.6-11.8.084-27.041.084-27.041l-.824-3.782a9.568,9.568,0,0,1,.782-6.295l8.356-16.786a25.123,25.123,0,0,1,1.574-3.221c.525-.96,1.222-2.145,2.1-3.567.257-.409.525-.834.818-1.28,1.012-1.574,2.24-3.357,3.724-5.413,3.7-5.125,5.644-11.54,6.651-16.261l.446,1.479h.1l.121.026h.2l.215.037h.079l2.57,32.712c.157,12.757,4.842,19.818,4.842,19.818L312.74,484.8c.881,6.783-1.049,15.826-1.936,19.435l-2.025,4.569a5.492,5.492,0,0,0-2.985,4.155c-.4,3.373-3.95,10.643-3.95,10.643-1.374,1.742-4.359,6.447-4.359,6.447s-1.406,4.543-.535,6.242,8.152,1.526,8.152,1.526c8.314,1.841,14.688-2.623,14.284-5.7s1.3-3.855,1.3-3.855c3.3-1.049,2.985-3.289,2.985-3.289a20.584,20.584,0,0,0-2.5-13.4l-.525,1.212a18.448,18.448,0,0,1,1-7.15l-.3.21-.094.058h-.031c.525-4.6,5.356-13.114,5.356-13.114,8.876-15.569,5.65-36.667,5.65-36.667l-1.374-6.578-.079-2.481a82.814,82.814,0,0,1,1.338-17.678c.477-2.581.97-5.7,1.348-9.133A80.721,80.721,0,0,1,338,402.337l.351-.063h.042c.483-.084.97-.168,1.464-.262h.094s.283-1.532.525-4.139c.142-1.663.257-3.772.257-6.2a69.7,69.7,0,0,0-3.31-21.565l.268-.383s.635-.86,1.794-2.35h0c2.13-2.707,5.445-6.819,9.531-11.456,7.318-8.346,5.167-16.786,5.167-16.786s-5.3-19.414-7.659-31.07a35.333,35.333,0,0,0-5.812-13.822,27.509,27.509,0,0,0,.734-5.6c.157-3.452.037-7.05-1.516-10.15s-4.857-5.55-8.309-5.135a3.179,3.179,0,0,1-1.49,0,2.266,2.266,0,0,1-.981-.855c-2.02-2.785-2.151-6.531-1.521-9.909s1.92-6.609,2.5-10,.315-7.15-1.841-9.835c-2.534-3.147-6.95-4.034-10.245-6.4-2.313-1.663-4.05-4.05-6.489-5.524s-4.721-.913-7.37-.357c-4.454.939-8.687,1.369-12.9,3.284a34.354,34.354,0,0,0-11.241,8.178,10.669,10.669,0,0,0-2.507,3.955c-1.049,3.467,1,7.16.572,10.748-.3,2.544-1.8,4.758-3,7.029s-2.1,4.968-1.165,7.344c1.469,3.714,6.258,4.5,9.741,6.478a2.974,2.974,0,0,1,1.154,1c.86,1.5-.9,3.058-2,4.391a6.615,6.615,0,0,0-1.311,2.665,9.505,9.505,0,0,0-5.7,6.882c-1.18,5.282.635,11.95,2.235,16.356-1.747,9.815.525,13.686,2.2,15.17a8.419,8.419,0,0,1,2.917,5.739v.184c.11,1.784.3,3.562.551,5.335h0c-.058-.414-.115-.855-.147-1.049-1.369,2.534-3.976,9.007-5.445,19.9A59.8,59.8,0,0,1,276.8,361a37.9,37.9,0,0,0-1.112,12.39l.262,3.53a1.112,1.112,0,0,1-.713-.236l1.841,3.373v5.691a20.984,20.984,0,0,1-1.4,7.506c-.131.346-.273.692-.425,1.049a6.106,6.106,0,0,0-.619,3.09c-3.96,6.069-13.041,40.082-13.041,40.082-4.926,11.152.4,18.36.4,18.36s2.581,31.049,3.063,32.654,1.553,20.531,1.553,20.531h0v1.505a3.53,3.53,0,0,0-.9-.257c-4.317-.241-5.487,6.578-5.487,6.578l-8.834,8.435s-4.034-.682-9.967,3.772S245.271,537.563,245.271,537.563Zm88.2-179.447-.026-.094-.241.142h0l-.1.058-.047.031h0l-4.071-14.368a23.857,23.857,0,0,1-.3-11.818l3.147-13.785h0v-3.315l10,26.658C342.483,345.217,336.54,353.92,333.476,358.116Z" transform="translate(-130.231 -119.864)"/><path class="v" d="M397.832,557a82.613,82.613,0,0,0-5.067,19.251c-.372,3.4-.855,6.473-1.327,9.022a82.452,82.452,0,0,0-1.29,17.452l.079,2.45,1.311,6.489s3.147,20.841-5.545,36.195c0,0-5.151,9.2-5.309,13.549l-3.488,1.348-7.05-1.978s3.4-12.207,2.3-20.762l.635-27.8s-4.579-6.956-4.737-19.545l-2.691-34.548Z" transform="translate(-190.196 -275.383)"/><path class="v" d="M324.43,547.62s-.866,13.471-7.527,22.755-8.078,13.313-8.078,13.313l-8.2,16.587a9.5,9.5,0,0,0-.771,6.206l.808,3.735s4.438,15.055-.079,26.705l-2.14,22.5H285.922s-1.049-18.7-1.505-20.285-3.011-32.25-3.011-32.25-5.246-7.134-.4-18.145c0,0,10.937-41.2,13.864-40.491S324.43,547.62,324.43,547.62Z" transform="translate(-148.976 -270.923)"/><g class="n" transform="translate(148.193 276.697)"><path d="M315.9,610.242l-.8-3.735a9.442,9.442,0,0,1,.766-6.232l8.2-16.6s1.422-4.039,8.078-13.313c6.394-8.918,7.449-21.7,7.522-22.677l1.275-.063s-.866,13.471-7.527,22.755-8.078,13.313-8.078,13.313l-8.2,16.587a9.5,9.5,0,0,0-.771,6.206l.808,3.735s4.438,15.055-.079,26.705l-2.14,22.5H313.68l2.14-22.5C320.337,625.271,315.9,610.242,315.9,610.242Z" transform="translate(-313.68 -547.62)"/></g><path class="f" d="M389.234,661.424c.157-4.354,5.309-13.549,5.309-13.549,8.718-15.37,5.545-36.195,5.545-36.195l-1.343-6.494-.079-2.45a82.45,82.45,0,0,1,1.29-17.452c.467-2.549.949-5.623,1.322-9.022a82.6,82.6,0,0,1,5.051-19.209l1.3-.052a82.613,82.613,0,0,0-5.067,19.251c-.372,3.4-.855,6.473-1.327,9.022a82.45,82.45,0,0,0-1.29,17.452l.079,2.45,1.311,6.489s3.147,20.841-5.545,36.195c0,0-5.151,9.2-5.309,13.549l-3.488,1.348-.734-.2Z" transform="translate(-199.995 -275.383)"/><path class="w" d="M376.965,753.921a6.064,6.064,0,0,0,5.77-.713,18.622,18.622,0,0,0-.472,10.46c1.427,5.707-13.313-4.6-13.313-4.6l3.147-7.192S373.32,754.157,376.965,753.921Z" transform="translate(-191.765 -368.036)"/><path class="f" d="M378.071,754.226a5.891,5.891,0,0,0,4.684-1.049,18.621,18.621,0,0,0-.472,10.46c1.427,5.707-13.313-4.6-13.313-4.6l3.147-7.192a4.5,4.5,0,0,0,3.593,2.025C376.524,753.969,377.3,754.079,378.071,754.226Z" transform="translate(-191.774 -368.022)"/><path class="v" d="M289.32,449.08h6.158V414.139l-4.621-.829Z" transform="translate(-137.56 -196.502)"/><path class="s" d="M289.32,449.08h6.158V414.139l-4.621-.829Z" transform="translate(-137.56 -196.502)"/><path class="x" d="M363.737,760.342a6.14,6.14,0,0,1,5.623,3.247l2.14,1.663,1.049-2.455a20.458,20.458,0,0,1,2.423,13.235s.315,2.214-2.932,3.247c0,0-1.663.792-1.269,3.8s-5.859,7.449-14.022,5.623c0,0-7.134.163-8-1.505s.556-6.1.556-6.1,2.932-4.648,4.275-6.363c0,0,3.488-7.186,3.887-10.491S361.675,758.516,363.737,760.342Z" transform="translate(-182.025 -371.761)"/><path class="w" d="M304.369,761.793l.063-4.926s-7.087,2.041-12.825-.267c0,0,.483,4.952-.315,5.628s2.654,7.05,2.654,7.05l3.855,4.039,6.63-2.413,1.8-5.665S304.841,761.793,304.369,761.793Z" transform="translate(-154.786 -370.28)"/><path class="f" d="M304.369,761.793l.063-4.926s-7.087,2.041-12.825-.267c0,0,.483,4.952-.315,5.628s2.654,7.05,2.654,7.05l3.855,4.039,6.63-2.413,1.8-5.665S304.841,761.793,304.369,761.793Z" transform="translate(-154.786 -370.28)"/><path class="x" d="M267.253,763.094s3.766.435,3.289,5.246.2,0,.2,0,4,1.621,5.429,3.882,4-2.02,4.2-3.247,1.8-1.736,1.8-1.736,6.295,11.671,5.183,14.882-14.625,3.95-14.625,3.95-2.46-1.385-8.125,2.932-17.431,1.049-17.431,1.049-9.589-4-3.761-8.393,9.783-3.724,9.783-3.724l8.676-8.361S263.015,762.853,267.253,763.094Z" transform="translate(-131.183 -373.365)"/><path class="y" d="M342.516,236.235c2.4,1.453,4.1,3.814,6.373,5.455,3.231,2.334,7.569,3.205,10.056,6.321,2.1,2.654,2.371,6.363,1.8,9.71s-1.836,6.541-2.45,9.877-.488,7.034,1.495,9.783a2.219,2.219,0,0,0,.96.845,3.148,3.148,0,0,0,1.464,0c3.389-.409,6.641,2.014,8.162,5.073s1.642,6.615,1.484,10.024a20.718,20.718,0,0,1-1.673,8.167c-2.1,4.28-6.463,6.924-10.769,8.949a83.412,83.412,0,0,1-8.6,3.473,12.939,12.939,0,0,1-6.232.939c-3.583-.619-6.122-3.877-9.521-5.151-2.785-1.049-5.875-.671-8.839-.409-2.528.22-5.419.215-7.16-1.631-2.235-2.371-1.227-6.2-.084-9.248a6.583,6.583,0,0,1-4.658-10.764c1.081-1.317,2.806-2.854,1.962-4.338a2.875,2.875,0,0,0-1.133-.986c-3.415-1.951-8.12-2.733-9.557-6.394-.923-2.355-.031-5.02,1.138-7.26s2.623-4.433,2.943-6.94c.42-3.546-1.574-7.192-.561-10.612a10.638,10.638,0,0,1,2.46-3.913,33.762,33.762,0,0,1,11.016-8.073c4.139-1.894,8.288-2.319,12.663-3.242C337.884,235.333,340.056,234.746,342.516,236.235Z" transform="translate(-161.465 -122.43)"/><path class="v" d="M321.058,337.754s-10.035-.525-11.934,8.031,4.118,20.809,4.118,20.809Z" transform="translate(-163.145 -171.142)"/><path class="s" d="M321.058,337.754s-10.035-.525-11.934,8.031,4.118,20.809,4.118,20.809Z" transform="translate(-163.145 -171.142)"/><path class="v" d="M320,344.416l3.8,3.011,17.746.792,11.079-7.606L363.9,321.278a13.93,13.93,0,0,1-10.712-10.963,24,24,0,0,1-.22-9.159S334.9,291.8,337.116,306.4a19.826,19.826,0,0,1,.168,5.424c-1.049,8.55-9.348,6.94-9.348,6.94l-3.184,4.91-3.646,12.065Z" transform="translate(-168.492 -152.341)"/><path class="f" d="M352.489,306.377a19.829,19.829,0,0,1,.168,5.424,16.015,16.015,0,0,0,15.9-1.49,24,24,0,0,1-.22-9.159S350.27,291.8,352.489,306.377Z" transform="translate(-183.849 -152.338)"/><circle class="v" cx="16.004" cy="16.004" r="16.004" transform="translate(159.46 128.267)"/><path class="g" d="M329.074,359.732c.388,0,.771.058,1.154.094,2.1.21,10.864.682,15.857-5.282,5.587-6.672,13.025-14.913,13.329-15.249l7.569,2.287s-5.991-2.13-9.967,9.012a11.54,11.54,0,0,0,3.9,13.277,11.992,11.992,0,0,0,4.952,2.1.026.026,0,0,1,0,.026v4.889h0l-3.095,13.639a23.642,23.642,0,0,0,.294,11.671l4.721,16.686c-.713.493-30,20.416-49.571,6.657h0c.073-.6,2.492-20.18.813-29.764a66.183,66.183,0,0,1-.876-7.407c0-.063,0-.121,0-.184a8.351,8.351,0,0,0-2.869-5.665c-1.763-1.574-4.149-5.77-1.789-16.859a40.738,40.738,0,0,1,2.623-7.989l6.562-14.829h0l6.048.121V337c-.525.65-7.538,9.411-8.3,15.055C319.685,357.424,318.767,359.071,329.074,359.732Z" transform="translate(-164.93 -170.71)"/><path class="v" d="M399.455,348.266s5.917,5.072,8.241,16.587,7.5,30.64,7.5,30.64,2.1,8.346-5.073,16.587-11.939,14.688-11.939,14.688l-4.721,6.956a5.922,5.922,0,0,1-3.4,2.4c-2.151.567-5.455.976-8.32-.593a4.847,4.847,0,0,1-2.1-6.122l1.049-2.429s-9.72,6.127-10.565,2.743,11.3-6.762,11.3-6.762,10.035-1.689,12.065-6.442c0,0,10.774-13.843,9.93-18.6l-10.407-27.891s-13.014-1.721-8.577-16.34S399.455,348.266,399.455,348.266Z" transform="translate(-192.307 -174.787)"/><path class="q" d="M307.359,515.83s23.773,4.753,29.375,4.118l.6,2.009s9.022,2.02,29.423-1.217q2-.315,4.149-.708l.477-.084s.278-1.511.5-4.086a70.864,70.864,0,0,0-3.457-28.767L365,476.53s-21.2,12.71-35.24,11.54c-1.254-.1-2.5-.2-3.751-.247-2.88-.11-7.344,0-10.245-2.324l-6.085,1.049V503.86a20.741,20.741,0,0,1-1.374,7.407c-.131.346-.268.687-.42,1.049A5.508,5.508,0,0,0,307.359,515.83Z" transform="translate(-162.44 -237.124)"/><path class="f" d="M364.58,552.218v5.387s10.386,2.324,34.049-2.009c0,0,.278-1.511.5-4.086C391.868,552.674,371.845,555.476,364.58,552.218Z" transform="translate(-189.687 -272.772)"/><path class="f" d="M307.362,547.333s23.773,4.753,29.375,4.118l.6,2.009v-5.387c-2.707,1.123-22.032-3.536-29.034-5.282-.131.346-.268.687-.42,1.049A5.508,5.508,0,0,0,307.362,547.333Z" transform="translate(-162.442 -268.627)"/><path class="q" d="M417.31,536.938l1.763,10.932q2-.315,4.149-.708c-.551-3.195-1.752-10.491-1.422-11.7l-2.219-1.9Z" transform="translate(-214.757 -264.238)"/><path class="f" d="M417.78,536.488l1.763,10.937q2-.32,4.149-.708c-.551-3.195-1.752-10.491-1.422-11.7l-2.219-1.9Z" transform="translate(-214.981 -264.024)"/><g class="z" transform="translate(152.3 239.39)"><path d="M335.254,496.19c-1.248-.1-2.5-.2-3.751-.247-2.8-.1-7.076,0-9.993-2.145l1.018-.178c2.917,2.313,7.344,2.214,10.245,2.324,1.254.042,2.5.142,3.751.247.409.037.829.058,1.254.068a23.533,23.533,0,0,1-2.523-.068Z" transform="translate(-321.51 -484.64)"/><path d="M400.007,520.726q2-.315,4.149-.7l.483-.089s.278-1.511.493-4.086a70.679,70.679,0,0,0-3.457-28.767l-3.231-9.967c.687-.388,1.049-.614,1.049-.614l3.431,10.565a70.866,70.866,0,0,1,3.457,28.767c-.22,2.576-.5,4.086-.5,4.086l-.477.089q-2.145.388-4.149.7a130.659,130.659,0,0,1-21.376,1.836A134.817,134.817,0,0,0,400.007,520.726Z" transform="translate(-349.261 -476.5)"/><path d="M360.382,559.3v.058H359.7Q360.088,559.331,360.382,559.3Z" transform="translate(-339.667 -515.866)"/></g><ellipse class="w" cx="0.897" cy="1.846" rx="0.897" ry="1.846" transform="translate(204.609 271.048)"/><path class="v" d="M311.537,451.285c1.448-10.753,4-17.143,5.351-19.645.052.341.189,1.448.252,1.789a51.948,51.948,0,0,1,.115,5.555L315.911,463.3l1.8,7.606c1.689,6.022-4.569,1.264-4.569,1.264-1.3,2.854-3.672,2.539-3.672,2.539l-.325-4.364a37.7,37.7,0,0,1,1.091-12.238A58.3,58.3,0,0,0,311.537,451.285Z" transform="translate(-163.281 -215.782)"/><path class="s" d="M311.537,451.285c1.448-10.753,4-17.143,5.351-19.645.052.341.189,1.448.252,1.789a51.948,51.948,0,0,1,.115,5.555L315.911,463.3l1.8,7.606c1.689,6.022-4.569,1.264-4.569,1.264-1.3,2.854-3.672,2.539-3.672,2.539l-.325-4.364a37.7,37.7,0,0,1,1.091-12.238A58.3,58.3,0,0,0,311.537,451.285Z" transform="translate(-163.281 -215.782)"/><path class="v" d="M401.518,484.334c-1.138,1.474-1.763,2.319-1.763,2.319l-4.721,6.95a5.9,5.9,0,0,1-3.4,2.4c-2.151.567-5.455.981-8.32-.593a4.837,4.837,0,0,1-2.1-6.116l1.049-2.434s-9.72,6.127-10.565,2.749,11.3-6.762,11.3-6.762,10.035-1.689,12.065-6.447c0,0,.876-1.123,2.1-2.843" transform="translate(-193.053 -235.712)"/><path class="q" d="M402.082,509.34s-11.493-1.117-15.134-7.69l-1.668,5.429s12.065,8.33,14.819,7.249Z" transform="translate(-199.529 -249.067)"/><path class="f" d="M401.306,509.235s-11.488-1.117-15.134-7.7l-1.663,5.414s12.065,8.33,14.814,7.249Z" transform="translate(-199.163 -249.015)"/><path class="q" d="M313.215,510.46s-4.023,1.427-4.815.635l1.81,3.331,3.42-2.623Z" transform="translate(-162.977 -253.256)"/><path class="f" d="M313.215,510.46s-4.023,1.427-4.815.635l1.81,3.331,3.42-2.623Z" transform="translate(-162.977 -253.256)"/><path class="f" d="M331.922,526.42v-6.95l-1.652,7.118Z" transform="translate(-157.029 -246.975)"/><path class="f" d="M362.743,265.418a6.173,6.173,0,0,1-4.312,2.271,33.975,33.975,0,0,1-5.01,0,12.564,12.564,0,0,0-7.559,1.9,19.218,19.218,0,0,0-3.467,3.672c-3.242,3.96-7.743,7.669-12.852,7.255a3.331,3.331,0,0,1-2.387-1.007,3.829,3.829,0,0,1-.608-2.171,49.645,49.645,0,0,1,.309-9.788,20.637,20.637,0,0,1,1.479-5.838,19.932,19.932,0,0,1,3.557-5.078,21.753,21.753,0,0,1,6.206-4.973,11.131,11.131,0,0,1,7.763-1c3.058.834,5.44,3.226,8.356,4.459C357.55,256.521,366.394,260.262,362.743,265.418Z" transform="translate(-171.552 -129.597)"/><path class="y" d="M362.743,264.2a6.173,6.173,0,0,1-4.312,2.271,33.975,33.975,0,0,1-5.01,0,12.524,12.524,0,0,0-7.559,1.9,19.218,19.218,0,0,0-3.467,3.672c-3.242,3.96-7.743,7.669-12.852,7.255a3.31,3.31,0,0,1-2.387-1.007,3.813,3.813,0,0,1-.609-2.172,49.643,49.643,0,0,1,.31-9.788,20.637,20.637,0,0,1,1.479-5.838,19.8,19.8,0,0,1,3.557-5.073,21.679,21.679,0,0,1,6.206-4.978,11.131,11.131,0,0,1,7.763-1c3.058.834,5.44,3.226,8.356,4.459C357.55,255.307,366.394,259.036,362.743,264.2Z" transform="translate(-171.552 -129.017)"/><path class="v" d="M291.872,473.47l-.042,1.915-.43-1.831Z" transform="translate(-138.549 -225.104)"/><path class="s" d="M291.872,473.47l-.042,1.915-.43-1.831Z" transform="translate(-138.549 -225.104)"/><g class="z" transform="translate(190.946 171.077)"><path d="M398.014,353.1c-4.443,14.62,8.508,16.335,8.508,16.335l10.407,27.891c.845,4.753-9.935,18.6-9.935,18.6-.75,1.773-2.623,3.121-4.669,4.118A7.313,7.313,0,0,0,405.1,417s10.774-13.838,9.93-18.59l-10.407-27.9s-12.946-1.715-8.508-16.335c1.484-4.884,3.672-7.108,5.886-7.905C400.469,347.5,399.069,349.622,398.014,353.1Z" transform="translate(-395.184 -346.27)"/></g><g class="n" transform="translate(147.614 166.125)"><path d="M401,384.61a10.93,10.93,0,0,0,2.1,1.988,11.923,11.923,0,0,0,4.952,2.1v.551a11.888,11.888,0,0,1-4.49-1.988A10.885,10.885,0,0,1,401,384.61Z" transform="translate(-354.617 -359.547)"/><path d="M322.583,420.31v.184a67.746,67.746,0,0,0,.9,7.433c1.574,9.043-.488,27-.782,29.48-.168-.11-.336-.215-.525-.336.079-.6,2.5-20.18.818-29.758a66.485,66.485,0,0,1-.876-7.407v-.184a8.093,8.093,0,0,0-1.411-4.013A8.157,8.157,0,0,1,322.583,420.31Z" transform="translate(-316.444 -374.333)"/><path d="M328.373,337.549l-5.13-.1a.026.026,0,0,0-.026,0l-6.557,14.824a40.87,40.87,0,0,0-2.623,7.989c-1.909,8.97-.708,13.439.75,15.648-1.642-1.936-3.336-6.347-1.222-16.261a40.437,40.437,0,0,1,2.6-7.994l6.6-14.824h0l6.048.121v.037C328.767,337.05,328.6,337.25,328.373,337.549Z" transform="translate(-312.577 -336.83)"/><path d="M416.39,345.87l.089.026Z" transform="translate(-361.934 -341.128)"/><path d="M372.7,343.732l-5.141-1.547h-.026c-.3.336-7.737,8.577-13.324,15.249-4.994,5.964-13.749,5.5-15.857,5.288-.383-.042-.771-.073-1.154-.1-5.733-.367-7.989-1.049-8.744-2.5,1.075,1.049,3.441,1.574,8.267,1.867.388,0,.771.058,1.154.094,2.1.21,10.864.677,15.857-5.282,5.587-6.678,13.025-14.919,13.329-15.254h0l7.48,2.266a4.674,4.674,0,0,0-1.841-.084Z" transform="translate(-320.124 -339.074)"/></g><path class="f" d="M288.94,776.608s-7.239,1.978-8.64-1.128" transform="translate(-149.617 -379.257)"/><path class="f" d="M375.014,773.726s-8.393,2.166-10.334-1.186" transform="translate(-189.735 -377.859)"/><path class="aa" d="M563.676,752.51c.121-1.049.294-2.1.483-3.147a21.938,21.938,0,0,0-1.049-10.638h0c-.194-.551-.336-.86-.336-.86-3.341-.913-16.513,9.306-21.313,13.156-1.663,0-3.467.073-5.44.2-.86.063-1.721.084-2.581.068h-3.147c-4.453-3.588-18.239-14.378-21.67-13.444,0,0-.142.31-.336.86h0a21.555,21.555,0,0,0-1.075,10.638c.189,1.049.362,2.1.483,3.147.257,2.3,1.222,6.725,4.721,9.71.75,5.455,3.557,12.626,5.718,16.98a12.163,12.163,0,0,0,.734,2.4c-.892,3.441-1.92,7.931-1.626,9.442,0,0-4.658-1.128-5.13,4.48v.173c-1.684.771-3.787,2.539-1.422,6.242a2.428,2.428,0,0,0,1.217.991c.42.147.829.147.787-.441l2.911,3.279s5.277.608,5.34-2.455l.31.047c.708.1,1.448.194,2.208.273l.367,1.212s-3.96-.084-2.88,2.355c0,0,1,.923,1.338.588,0,0-.525,1.6,1.542,1.6,0,0,2.219,1.175,3.084.336s2.659-2.1,2.827-2.623c.047-.142.068-1.385.079-3.105h.341c4.422.1,9.117-.037,13.387-.268h.346c0,1.862.026,3.237.073,3.383.173.525,1.972,1.768,2.833,2.623s3.079-.336,3.079-.336c2.056,0,1.542-1.6,1.542-1.6.346.336,1.343-.587,1.343-.587,1.081-2.439-2.885-2.355-2.885-2.355l.472-1.574,2.187-.184.346-.031c-.21,3.331,5.335,2.691,5.335,2.691l2.917-3.279c-.047.588.362.588.782.441a2.407,2.407,0,0,0,1.18-1c3.572-5.587-3.027-6.772-3.027-6.772a3.24,3.24,0,0,0-.624-.1,1.075,1.075,0,0,1,.026-.289h0a11.518,11.518,0,0,0,.042-2.214,4.87,4.87,0,0,0-3.929-2.859c-1.343-.168-1.369-6.337-1.233-10.612a12.206,12.206,0,0,0,.21-2.434,12.842,12.842,0,0,0-.524-3.9c2.623-4.448,4.721-9.112,4.957-10.491C562.454,759.219,563.419,754.813,563.676,752.51Z" transform="translate(-257.371 -361.338)"/><path class="g" d="M563.991,829.456h0c-.21,2.906-.771,7.569-.771,7.569s-2.334.283-5.943.608l-2.45.21c-1.878.152-3.987.3-6.216.425-4.118.226-8.64.367-12.9.262-2.13-.047-4.2-.157-6.111-.346-.855-.084-1.684-.184-2.471-.3-4.889-.729-8.393-2.124-8.692-4.574a14.159,14.159,0,0,1-.11-3.147c.456-5.508,4.941-4.4,4.941-4.4-.289-1.521.8-6.247,1.679-9.668.556-2.156,1.049-3.793,1.049-3.793l31.537-2.1h.1a1.542,1.542,0,0,1,1.542,1.621c-.189,3.782-.456,12.443,1.091,12.637a4.754,4.754,0,0,1,3.793,2.806A11.767,11.767,0,0,1,563.991,829.456Z" transform="translate(-262.763 -395.769)"/><path class="g" d="M532.725,754.734s-11.892,14.315-17.62,10.35c-.136-.094-.267-.189-.393-.289-3.85-2.917-4.863-7.617-5.13-10-.115-1.049-.283-2.061-.467-3.084a21.418,21.418,0,0,1,1.049-10.444h0c.189-.525.32-.845.32-.845C514.444,739.317,532.725,754.734,532.725,754.734Z" transform="translate(-258.281 -362.56)"/><path class="g" d="M526.312,756.873s-3.745,2.623-9.028,6.935a19.091,19.091,0,0,1-2.623,1.8c-3.85-2.917-4.863-7.617-5.13-10-.115-1.049-.283-2.062-.467-3.084a21.418,21.418,0,0,1,1.049-10.444h0C517.52,742.594,526.312,756.873,526.312,756.873Z" transform="translate(-258.257 -363.377)"/><path class="ab" d="M526.312,756.873s-3.745,2.623-9.028,6.935a19.091,19.091,0,0,1-2.623,1.8c-3.85-2.917-4.863-7.617-5.13-10-.115-1.049-.283-2.062-.467-3.084a21.418,21.418,0,0,1,1.049-10.444h0C517.52,742.594,526.312,756.873,526.312,756.873Z" transform="translate(-258.257 -363.377)"/><path class="f" d="M525.975,760.435s-2,1.411-4.821,3.7a10.14,10.14,0,0,1-1.385.96,7.722,7.722,0,0,1-2.738-5.335c-.058-.556-.147-1.1-.247-1.652a11.468,11.468,0,0,1,.582-5.571h0C521.285,752.813,525.975,760.435,525.975,760.435Z" transform="translate(-261.996 -368.35)"/><path class="g" d="M569.05,754.734s11.892,14.315,17.62,10.35c.131-.094.268-.189.393-.289,3.85-2.917,4.863-7.617,5.13-10,.115-1.049.283-2.061.462-3.084a21.353,21.353,0,0,0-1.049-10.444h0c-.189-.525-.325-.845-.325-.845C587.331,739.317,569.05,754.734,569.05,754.734Z" transform="translate(-286.9 -362.56)"/><path class="g" d="M581.22,756.873s3.751,2.623,9.033,6.935a19.071,19.071,0,0,0,2.6,1.8c3.85-2.917,4.863-7.617,5.13-10,.115-1.049.283-2.062.462-3.084a21.355,21.355,0,0,0-1.049-10.444h0C590.022,742.594,581.22,756.873,581.22,756.873Z" transform="translate(-292.686 -363.377)"/><path class="ab" d="M581.22,756.873s3.751,2.623,9.033,6.935a19.071,19.071,0,0,0,2.6,1.8c3.85-2.917,4.863-7.617,5.13-10,.115-1.049.283-2.062.462-3.084a21.355,21.355,0,0,0-1.049-10.444h0C590.022,742.594,581.22,756.873,581.22,756.873Z" transform="translate(-292.686 -363.377)"/><path class="f" d="M589.05,760.448s1.988,1.406,4.789,3.672a9.616,9.616,0,0,0,1.38.955,7.747,7.747,0,0,0,2.723-5.3c.058-.525.147-1.1.246-1.642a11.488,11.488,0,0,0-.551-5.539h0C593.713,752.873,589.05,760.448,589.05,760.448Z" transform="translate(-296.409 -368.374)"/><path class="f" d="M563.554,810.23a28.486,28.486,0,0,1-4.553,5.8c-4.721,4.2-25.105,2.528-26.427,2.313-.278-.047-.855-.871-1.574-2.208.556-2.156,1.049-3.793,1.049-3.793Z" transform="translate(-268.81 -395.778)"/><path class="g" d="M541.51,765.283c-.829.058-1.658.079-2.492.063-4.254-.073-18.585.115-20.175,5.9-1.873,6.819,6.5,25.079,7.816,25.3s21.7,1.873,26.433-2.313,10.9-17.31,10.57-18.5C563.662,775.732,569.537,763.342,541.51,765.283Z" transform="translate(-262.901 -374.31)"/><path class="f" d="M546.3,786.467a15.048,15.048,0,0,0-15.412,8.708,12.59,12.59,0,0,0,.929,12.689c1.637,2.3,4.039,4.018,7.38,2.623C546.627,807.428,546.3,786.467,546.3,786.467Z" transform="translate(-268.144 -384.436)"/><path class="f" d="M545.672,785.207a15.048,15.048,0,0,0-15.412,8.708,12.589,12.589,0,0,0,.928,12.689c1.637,2.3,4.039,4.018,7.381,2.623C546,806.168,545.672,785.207,545.672,785.207Z" transform="translate(-267.845 -383.837)"/><path class="g" d="M545.672,785.837a15.048,15.048,0,0,0-15.412,8.708,12.589,12.589,0,0,0,.928,12.689c1.637,2.3,4.039,4.018,7.381,2.623C546,806.8,545.672,785.837,545.672,785.837Z" transform="translate(-267.845 -384.137)"/><path class="ab" d="M545.672,785.837a15.048,15.048,0,0,0-15.412,8.708,12.589,12.589,0,0,0,.928,12.689c1.637,2.3,4.039,4.018,7.381,2.623C546,806.8,545.672,785.837,545.672,785.837Z" transform="translate(-267.845 -384.137)"/><path class="ac" d="M538.327,803.13s-1.432,1.322-.881,1.652S538.327,803.13,538.327,803.13Z" transform="translate(-271.814 -392.402)"/><path class="ac" d="M541.795,806.35s-.782,1.726-.226,1.915.886-1.238.886-1.238Z" transform="translate(-273.74 -393.933)"/><path class="ac" d="M535.281,811.32s-.766,2.035,0,2.035S535.281,811.32,535.281,811.32Z" transform="translate(-270.684 -396.296)"/><path class="ad" d="M533.78,821.71s1.532,3.913,5.518,3.635" transform="translate(-270.132 -401.236)"/><path class="ad" d="M540.61,823.91a2.76,2.76,0,0,0,3.3.441" transform="translate(-273.379 -402.282)"/><path class="f" d="M564,786.467a15.048,15.048,0,0,1,15.412,8.708,12.59,12.59,0,0,1-.928,12.689c-1.631,2.3-4.039,4.018-7.381,2.623C563.652,807.428,564,786.467,564,786.467Z" transform="translate(-284.497 -384.436)"/><path class="f" d="M564.588,785.207A15.048,15.048,0,0,1,580,793.914a12.589,12.589,0,0,1-.928,12.689c-1.631,2.3-4.039,4.018-7.381,2.623C564.279,806.168,564.588,785.207,564.588,785.207Z" transform="translate(-284.778 -383.837)"/><path class="g" d="M564.588,785.837A15.048,15.048,0,0,1,580,794.544a12.59,12.59,0,0,1-.928,12.689c-1.631,2.3-4.039,4.018-7.381,2.623C564.279,806.8,564.588,785.837,564.588,785.837Z" transform="translate(-284.778 -384.137)"/><path class="ab" d="M564.588,785.837A15.048,15.048,0,0,1,580,794.544a12.59,12.59,0,0,1-.928,12.689c-1.631,2.3-4.039,4.018-7.381,2.623C564.279,806.8,564.588,785.837,564.588,785.837Z" transform="translate(-284.778 -384.137)"/><path class="ac" d="M586.16,803.13s1.432,1.322.881,1.652S586.16,803.13,586.16,803.13Z" transform="translate(-295.035 -392.402)"/><path class="ac" d="M582.621,806.35s.782,1.726.226,1.915-.887-1.238-.887-1.238Z" transform="translate(-293.038 -393.933)"/><path class="ac" d="M589.514,811.32s.761,2.035,0,2.035S589.514,811.32,589.514,811.32Z" transform="translate(-296.469 -396.296)"/><path class="ad" d="M586.618,821.71s-1.532,3.913-5.518,3.635" transform="translate(-292.629 -401.236)"/><path class="ad" d="M581.8,823.91a2.766,2.766,0,0,1-3.3.441" transform="translate(-291.393 -402.282)"/><path class="ac" d="M553.2,841.967c.278-.052,5.508-2.313,10.9,0Z" transform="translate(-279.365 -410.373)"/><path class="f" d="M527.125,855.286c-4.889-.729-8.393-2.124-8.692-4.574a14.159,14.159,0,0,1-.11-3.147,7.059,7.059,0,0,1,1.867-.682c.886-.247,1.983-.079,4.3.582s2.146,3.383,2.623,6.935A2.935,2.935,0,0,1,527.125,855.286Z" transform="translate(-262.763 -413.153)"/><path class="g" d="M517.721,847.535s-6.358,1.164-2.917,6.651a2.345,2.345,0,0,0,1.175.97c.4.142.792.142.75-.435l2.812,3.221s5.613.661,5.12-2.89-.331-6.295-2.623-6.935S518.618,847.289,517.721,847.535Z" transform="translate(-260.624 -413.465)"/><path class="ad" d="M524.18,854.67s1.348,3.079,3.221.493" transform="translate(-265.567 -416.907)"/><path class="ad" d="M518.28,857s.7,2.917,3.341.745" transform="translate(-262.762 -418.014)"/><path class="f" d="M599.321,846.852h0c-.21,2.906-.771,7.569-.771,7.569s-2.334.283-5.943.609a3.049,3.049,0,0,1,0-.609c.493-3.551.331-6.295,2.623-6.935C597.38,846.9,598.476,846.69,599.321,846.852Z" transform="translate(-298.093 -413.165)"/><path class="g" d="M600.206,847.535s6.363,1.164,2.922,6.651a2.366,2.366,0,0,1-1.175.97c-.4.142-.8.142-.755-.435l-2.806,3.221s-5.618.661-5.12-2.89.331-6.295,2.623-6.935S599.325,847.289,600.206,847.535Z" transform="translate(-298.401 -413.465)"/><path class="ad" d="M600.721,854.67s-1.353,3.079-3.221.493" transform="translate(-300.427 -416.907)"/><path class="ad" d="M606.507,857s-.7,2.917-3.347.745" transform="translate(-303.117 -418.014)"/><path class="f" d="M544.078,853.437c-2.13-.047-4.2-.157-6.111-.346l-1.9-6.41a4.163,4.163,0,0,1-.173-1.17,4.081,4.081,0,0,1,8.157-.026C544.068,847.982,544.089,851.145,544.078,853.437Z" transform="translate(-271.135 -410.675)"/><path class="g" d="M534.946,846.556l2.245,7.564s-3.819-.084-2.775,2.313c0,0,.96.907,1.29.577,0,0-.5,1.574,1.484,1.574,0,0,2.14,1.159,2.969.331s2.565-2.067,2.733-2.56c.1-.325.073-6.651.037-11.016a4.071,4.071,0,0,0-4.076-4.039h0a4.076,4.076,0,0,0-3.908,5.256Z" transform="translate(-270.348 -410.55)"/><path class="ad" d="M540.424,869.47s-1.668,1.574-.787,2.5" transform="translate(-272.794 -423.943)"/><path class="ad" d="M538.6,867.56a2.265,2.265,0,0,0-1.542,1.936" transform="translate(-271.691 -423.035)"/><path class="f" d="M584.312,845.384a4.151,4.151,0,0,1-.168,1.17l-1.778,6.069c-1.878.152-3.987.3-6.216.425,0-2.266,0-5.282.037-7.69a4.076,4.076,0,1,1,8.152.026Z" transform="translate(-290.276 -410.548)"/><path class="g" d="M584.737,846.556l-2.245,7.564s3.824-.084,2.78,2.313c0,0-.96.907-1.29.577,0,0,.493,1.574-1.49,1.574,0,0-2.14,1.159-2.969.331s-2.56-2.067-2.728-2.56c-.1-.325-.073-6.651-.037-11.016a4.071,4.071,0,0,1,4.076-4.039h0a4.076,4.076,0,0,1,3.9,5.256Z" transform="translate(-290.549 -410.55)"/><path class="ad" d="M586.23,869.47s1.668,1.574.787,2.5" transform="translate(-295.068 -423.943)"/><path class="ad" d="M587.63,867.56a2.265,2.265,0,0,1,1.542,1.936" transform="translate(-295.734 -423.035)"/><path class="f" d="M553.552,782.769s-7.769-.247-8.015,5.77,12.138,3.467,12.138,3.467,5.2-.7,4.3-4.354S559.17,783.1,553.552,782.769Z" transform="translate(-275.719 -382.721)"/><path class="f" d="M553.552,781.509s-7.769-.247-8.015,5.77,12.138,3.467,12.138,3.467,5.2-.7,4.3-4.354S559.17,781.839,553.552,781.509Z" transform="translate(-275.719 -382.122)"/><path class="ac" d="M553.552,782.139s-7.769-.246-8.015,5.77,12.138,3.467,12.138,3.467,5.2-.7,4.3-4.354S559.17,782.469,553.552,782.139Z" transform="translate(-275.719 -382.422)"/><path class="f" d="M527.78,839.92s2.623.934,3.147,2.722" transform="translate(-267.279 -409.894)"/><path class="f" d="M596.705,837.4s-1.862.782-1.731,4.044" transform="translate(-299.222 -408.696)"/><ellipse class="g" cx="1.216" cy="2.016" rx="1.216" ry="2.016" transform="translate(259.546 442.521) rotate(-29.887)"/><ellipse class="g" cx="2.009" cy="1.212" rx="2.009" ry="1.212" transform="translate(296.466 442.995) rotate(-60)"/><ellipse class="ab" cx="1.216" cy="2.016" rx="1.216" ry="2.016" transform="translate(259.546 442.521) rotate(-29.887)"/><ellipse class="ab" cx="2.009" cy="1.212" rx="2.009" ry="1.212" transform="translate(296.466 442.995) rotate(-60)"/><ellipse class="a" cx="14.126" cy="2.387" rx="14.126" ry="2.387" transform="translate(86.898 373.232)"/><ellipse class="a" cx="14.126" cy="2.387" rx="14.126" ry="2.387" transform="translate(31.247 407.082)"/><ellipse class="g" cx="21.093" cy="3.567" rx="21.093" ry="3.567" transform="translate(9.572 375.619)"/><path class="g" d="M71.115,723.07a6.1,6.1,0,0,1-2.014-3.032,2.7,2.7,0,0,1,1.406-3.09c1.29-.493,2.67.4,3.714,1.3s2.245,1.936,3.614,1.747a5.5,5.5,0,0,1-1.7-5.151,2.1,2.1,0,0,1,.472-1.049c.713-.766,2.014-.435,2.875.168,2.722,1.92,3.488,5.623,3.5,8.959a16.524,16.524,0,0,0,.052-3.672,3.777,3.777,0,0,1,1.385-3.263,4.2,4.2,0,0,1,2.1-.524,4.388,4.388,0,0,1,3.431.976c1.049,1.112.771,2.985-.136,4.2a13.714,13.714,0,0,1-3.546,2.843,7.827,7.827,0,0,0-2.539,2.418,2.471,2.471,0,0,0-.189.43H75.873a21.21,21.21,0,0,1-4.758-3.258Z" transform="translate(-49.174 -349.717)"/><ellipse class="a" cx="14.126" cy="2.387" rx="14.126" ry="2.387" transform="translate(526.076 393.197)"/><path class="ae" d="M1042.91,749.164s8.057-.247,10.491-1.978,12.39-3.793,12.993-1.018,12.112,13.791,3.011,13.864-21.135-1.416-23.558-2.9S1042.91,749.164,1042.91,749.164Z" transform="translate(-512.192 -364.675)"/><path class="af" d="M1069.563,763.014c-9.1.073-21.135-1.416-23.558-2.9-1.846-1.123-2.581-5.156-2.827-7.019h-.268s.525,6.5,2.932,7.973,14.462,2.969,23.558,2.9c2.623,0,3.536-.955,3.483-2.34C1072.521,762.49,1071.52,763.014,1069.563,763.014Z" transform="translate(-512.192 -368.616)"/></g></svg>