<svg xmlns="http://www.w3.org/2000/svg" width="52.96" height="49.81" viewBox="0 0 52.96 49.81"><defs><style>.a{fill:#e7ab0d;}</style></defs><g transform="translate(-2.959 -8)"><g transform="translate(3 8)"><path class="a" d="M41.941,13.163v4.968a4.763,4.763,0,0,1-2.075,3.948v.674l4.37,1.093a5.182,5.182,0,0,1,3.931,5.034v9.211H46.091V28.88a3.113,3.113,0,0,0-2.357-3.019l-5.157-1.29a1.038,1.038,0,0,1-.787-1.006V21.489a1.038,1.038,0,0,1,.574-.929,2.7,2.7,0,0,0,1.5-2.429V12.151a4.151,4.151,0,1,0-8.3,0v5.981a2.7,2.7,0,0,0,1.5,2.429,1.038,1.038,0,0,1,.574.929v2.075a1.038,1.038,0,0,1-.787,1.006L27.7,25.861a3.113,3.113,0,0,0-2.357,3.019v9.211H23.263V28.88a5.182,5.182,0,0,1,3.931-5.034l4.37-1.093V22.08a4.763,4.763,0,0,1-2.075-3.943V13.163A19.7,19.7,0,0,0,18.372,41.227a24.369,24.369,0,0,1,10.065,2.536,5.277,5.277,0,0,0,2.342.554h8.049a3.632,3.632,0,0,1,3.632,3.632,3.575,3.575,0,0,1-.038.382l6.728-2.857a3.715,3.715,0,0,1,1.046-.258,19.685,19.685,0,0,0-8.254-32.052Zm-12.452,27H27.414V30.828h2.075Zm14.527,0H41.941V30.828h2.075Z" transform="translate(-2.511 -8)"/><rect class="a" width="2" height="11" transform="translate(-0.041 34.903)"/><path class="a" d="M38.8,48.226c.138,0,.271-.028.407-.04a1.556,1.556,0,0,0-.342-3.072H30.817a7.344,7.344,0,0,1-3.274-.773A22.277,22.277,0,0,0,17.63,42H15v9.809l8.537,3.546a15.876,15.876,0,0,0,11.675.126l16.029-6.113a1.714,1.714,0,0,0,.961-.92,1.781,1.781,0,0,0,.028-1.379A1.713,1.713,0,0,0,51.3,46.1,1.648,1.648,0,0,0,50,46.1l-8.676,3.683a6.393,6.393,0,0,1-2.395.507c-.022,0-.042.006-.062.006H26.414V48.226Z" transform="translate(-2.548 -6.721)"/><rect class="a" width="6" height="13" transform="translate(3.959 33.903)"/></g></g></svg>